<?xml version="1.0" encoding="UTF-8"?><svg id="a" xmlns="http://www.w3.org/2000/svg" viewBox="0 0 342.69753 216.07663"><defs><style>.b{fill:#fff;}.c{fill:#888;}.d{fill:red;}</style></defs><path class="b" d="M342.68407,135.1705c0,26.74834-.00193,53.4967,.01346,80.24504,.00028,.53959-.12152,.66116-.66133,.66109-113.79159-.01379-227.58321-.01379-341.3748-.00002-.53952,.00005-.6615-.12108-.6614-.66095C.0141,143.83085,.01409,72.24605,.00005,.66124-.00006,.12198,.12099-.00007,.66114,0,114.45273,.01381,228.24432,.01381,342.03592,.00007c.53918-.00007,.66179,.12054,.66162,.66078-.01462,44.74059-.01346,89.48118-.01346,134.22178-.10925-.04208-.21713-.1168-.32793-.12136-1.64757-.06782-3.29623-.11249-4.943-.19529-.50917-.02559-.34877,.30871-.29516,.50726,.36958,1.36983,.43623,2.78399,.51725,4.17947,.11168,1.92437,.08004,3.86331-.14011,5.78309-.05916,.51587,.00935,1.06992-.16518,1.53633-.18704,.49999,.07118,.47267,.35661,.46899,.76299-.00981,1.52742-.08927,2.28789-.05831,.62632,.02548,.79224-.21834,.83839-.81319,.09885-1.27408,.26198-2.54549,.45507-3.80938,.24539-1.60632,.5104-3.21159,.83899-4.80244,.16507-.79911,.12074-1.6569,.57718-2.3873Zm-88.99921-14.25884c.81672-.28635,1.16319-1.08117,1.67093-1.66262,.81642-.93494,1.67754-1.77693,2.76506-2.36417,.84078-.45399,1.78245-.64868,2.79148-.91105-1.42765-.67583-2.761-1.30356-4.0909-1.93856-.43007-.20535-.67474-.23204-.8531,.35991-.32044,1.06344-.82164,2.07137-1.16626,3.12888-.36863,1.13111-.88887,2.21456-1.09638,3.39738-.11213,.01767-.13291,.0934-.11039,.18708,.002,.00829,.0845,.01653,.10276-.00186,.06315-.06359,.10589-.13827-.0132-.195Zm18.84633,.04831l.02197-.03305-.03499,.00532c.06506,1.10801,.25968,2.23384-.1543,3.30629-1.63384,4.23262-3.38497,8.41743-5.22148,12.566-.2047,.46242-.24954,.69978,.36134,.8248,.84286,.17251,1.6829,.40428,2.48521,.71213,.48312,.18538,.72854,.03179,1.04118-.28291,2.58685-2.60398,5.18747-5.19429,7.78288-7.78978,.53479-.53483,1.03499-1.11946,1.7494-1.42125,.22042-.09312,.28372-.27742,.31415-.42341,.24458-1.17337,.67796-2.29111,1.06591-3.41462,.23291-.67452,.03742-.75328-.53302-.94411-2.05879-.68875-4.07887-1.49284-6.13553-2.18846-.91321-.30888-1.76102-.82089-2.74271-.91694Zm-12.38594,29.53334c.09937-.29845,.14867-.47498,.21593-.64436,2.03281-5.11975,4.37768-10.10546,6.5236-15.17645,1.52138-3.59516,3.01443-7.20285,4.47172-10.82441,.74313-1.84678,.05851-3.78754-1.57272-4.92721-2.67885-1.87161-5.66059-2.34329-8.80778-1.83547-1.74021,.28078-3.28036,1.06987-4.46381,2.44252-2.08749,2.42121-4.17974,4.83833-6.26737,7.25941-1.79287,2.07929-3.62586,4.12599-5.36228,6.25147-2.37387,2.90577-4.73838,5.82054-6.99001,8.82451-3.16459,4.22204-6.33518,8.43974-9.53014,12.63878-.87809,1.15403-1.67437,2.37853-2.73163,3.39091-.21092,.20197-.42888,.46072-.73241,.30494-.31576-.16207-.15662-.51086-.13101-.76834,.06108-.61416,.23857-1.22227,.24968-1.83499,.06246-3.4487,.12637-6.89815,.11326-10.34706-.00645-1.70023,.18948-3.33491,.66891-4.97511,.75986-2.59956,1.58061-5.19041,1.91419-7.89885,.14407-1.1698-.03733-2.25036-.80746-3.1425-1.96623-2.27777-4.57962-2.82835-7.42235-2.59522-1.96488,.16113-3.79297,.91355-5.64739,1.51617-8.5003,2.76224-16.03436,7.10403-22.24436,13.6193-.80642,.84607-1.50041,1.80264-2.44165,2.52364-.90535,.69353-.90927,.71586-1.41332-.35843-1.57899-3.36511-3.04239-6.78515-4.76024-10.08416-.91629-1.75968-2.2714-3.01477-4.25266-3.48941-1.03306-.24749-2.08077-.23437-3.13343-.17755-1.11022,.05993-1.38728-.31407-1.01313-1.35803,.44401-1.23886,.88896-2.47788,1.36371-3.70516,2.41784-6.25041,4.30254-12.66945,6.01326-19.13992,1.3349-5.0489,2.34357-10.15189,2.50881-15.40429,.06633-2.10825-.81825-3.53563-2.57634-4.44398-3.05299-1.57738-6.21547-1.43742-9.36783-.30392-2.35648,.84735-3.75156,2.45328-3.8848,5.06302-.13672,2.67795-.6468,5.31388-1.17929,7.93283-1.1683,5.74586-2.80825,11.36794-4.65049,16.93233-1.93372,5.84071-4.20479,11.56127-6.18422,17.38539-1.23175,3.62419-2.37814,7.27845-3.88136,10.805-2.12276,4.98-4.41974,9.88109-6.7328,14.77406-.75461,1.59628-1.33845,3.28113-2.36314,4.74455-.13523,.19312-.21792,.44264-.53979,.33199-.33972-.11679-.31088-.38623-.27043-.64967,.37507-2.44281,.41561-4.90409,.41548-7.36786-.00027-5.1096-.00078-10.21921,.00174-15.32881,.00014-.28387,.01038-.55847,.09768-.84604,.63387-2.08837,1.38915-4.13362,2.13163-6.18422,.32909-.90884,.59884-1.81823,.43804-2.83333-.46228-2.91833-4.26533-5.55886-7.50391-5.15526-2.41965,.30153-4.76748,.9303-7.09177,1.64696-4.93376,1.52127-9.49896,3.83109-13.86482,6.55011-4.95947,3.0887-9.61666,6.56625-13.70091,10.77247-1.23035,1.26709-2.45224,2.5385-3.61513,3.87018-1.07649,1.23273-2.113,2.49613-3.12883,3.77677-1.31596,1.659-2.60207,3.34166-3.90529,5.0108-.14928,.19118-.33924,.38622-.60362,.23177-.27975-.16341-.31109-.46752-.09959-.66488,.22339-.20847,.06761-.43743,.12584-.6481,.45383-1.64175,1.05835-3.23676,1.52894-4.86692,.70779-2.45173,1.46241-4.88848,2.2428-7.31552,.81035-2.52014,1.62582-5.03745,2.55076-7.52512,1.59696-4.29502,3.228-8.57184,5.01506-12.79132,2.78051-6.56515,5.72946-13.05431,8.70281-19.53358,2.09843-4.57271,4.36695-9.06303,6.50502-13.61615,.41688-.88775,.75223-1.77971,.61984-2.79223-.19029-1.45535-1.10798-2.40806-2.26814-3.10671-2.17562-1.31015-4.53274-1.85464-7.09166-1.50821-3.08371,.41747-5.41463,1.83691-6.7725,4.72121-3.02184,6.41877-5.99811,12.86023-9.11761,19.23145-3.86817,7.90031-7.79342,15.77229-11.346,23.8217-3.52269,7.98169-7.01106,15.97853-10.53221,23.96092-.33164,.75181-.61391,1.53757-1.15758,2.1897-.19155,.22979-.39282,.22267-.62953,.22237-.32144-.00039-.21359-.2469-.24338-.41505-.30056-1.69694-.70147-3.3667-1.20905-5.01677-2.02448-6.58128-4.01651-13.17253-6.02907-19.75751-.23366-.7645-.10411-1.46029,.33895-2.08911,.30134-.42767,.65321-.82714,1.02485-1.19663,1.59659-1.58742,3.15585-3.2113,4.83525-4.71664,2.14983-1.92701,4.36846-3.76768,6.64339-5.54307,2.43072-1.897,4.98012-3.63084,7.47035-5.44599,2.30482-1.68,2.50546-4.52413,.50531-6.53152-.89105-.89425-1.98928-1.45616-3.12689-1.93693-3.34353-1.41302-6.54058-1.26587-9.56409,.90464-4.02065,2.88634-7.78554,6.09806-11.69878,9.12062-.41329,.31921-.72964,1.10968-1.22765,.87078-.40009-.19194-.52527-.95827-.76884-1.47143-.01929-.04064-.00189-.09731-.01588-.14204-.73562-2.35241-1.3653-4.73583-2.21598-7.05483-2.20974-6.0239-4.46541-12.03338-6.53241-18.10657-2.50201-7.35134-5.3071-14.56696-8.64431-21.58361-3.18617-6.69909-6.38654-13.39089-9.68307-20.03595-.88496-1.78387-2.29556-3.07172-4.27376-3.59862-3.02518-.80577-5.96198-.3508-8.70925,.98425-2.21093,1.07442-3.21404,2.99345-2.2167,5.66236,1.20238,3.21761,2.11397,6.52475,3.10111,9.81026,2.25845,7.51683,3.84845,15.16517,4.67687,22.97058,.33921,3.19607,.83313,6.37247,1.18412,9.56813,.28945,2.63537,.58604,5.27112,.66843,7.91682,.11108,3.56701-.03706,7.13453-.20616,10.70137-.17054,3.59707-.2873,7.19252-.79302,10.76637-.42955,3.0356-.99102,6.03952-1.69105,9.02532-2.11008,9.00003-5.25186,17.62777-9.2672,25.94328-2.20345,4.56319-4.58857,9.03402-6.97094,13.50572-1.68933,3.17091-3.39938,6.33141-5.03875,9.52805-.96141,1.87465-.96144,3.30508,.80833,4.91857,1.70835,1.5575,3.68813,2.45428,5.9968,2.65601,2.99644,.26187,5.57391-.60961,7.70548-2.75161,.68069-.68402,1.06574-1.56238,1.58343-2.35467,.94719-1.44962,1.98792-2.83823,2.9328-4.28927,2.68891-4.12927,5.9162-7.8268,9.1776-11.49604,1.66741-1.87595,3.391-3.70194,5.08551-5.55389,2.96914-3.24502,5.94128-6.48732,8.90025-9.7416,1.33051-1.4633,2.60312-2.98015,3.95739-4.42063,.90951-.96741,1.70778-2.04651,2.78216-2.85674,.46318-.34928,.66812-.12794,.79798,.31461,.03929,.1339,.04931,.27667,.09147,.40944,1.65164,5.2016,3.29393,10.4062,4.96334,15.60209,.98411,3.06297,2.01874,6.10968,3.01793,9.16787,1.21981,3.73339,2.42578,7.47132,3.63873,11.20696,.61392,1.89074,1.90137,3.13004,3.73755,3.82121,2.24849,.84639,4.57309,.91277,6.88346,.42501,2.10243-.44387,3.836-1.51132,4.7309-3.60007,.59102-1.37948,1.18236-2.7595,1.734-4.15491,.45991-1.16336,.61534-1.20818,1.46725-.27788,.04762,.05199,.09727,.10247,.14109,.15754,.85373,1.07287,1.93407,1.91894,2.92649,2.8471,.67903,.63508,1.47478,1.22039,2.32258,1.58716,3.67274,1.58879,7.36738,.78716,9.80555-2.66119,1.01629-1.43735,2.0896-2.83442,3.02427-4.38703,.55252,.63227,.88645,1.31257,1.19829,1.98993,1.36391,2.96266,3.41689,5.35894,6.02857,7.26724,1.76669,1.2909,3.74515,1.87848,5.96589,1.43282,1.29043-.25897,2.5549-.58828,3.7964-1.02455,1.11721-.39259,2.23568-.77233,3.31523-1.26839,2.12344-.97572,3.99908-2.29481,5.73109-3.85809,.45338-.40922,.95363-.89838,1.64398-.99533,.15247,1.64744-.17514,3.25502,.15946,4.84139,.37879,1.7959,1.18296,3.23052,2.94361,4.09622,2.32072,1.14106,4.7586,1.41015,7.25911,1.19007,2.13364-.18781,4.1584-.84507,5.91594-2.11898,.72595-.52622,1.31434-1.24039,2.03329-1.77825,1.64181-1.22819,3.0123-2.73061,4.35776-4.25007,1.05882-1.19578,2.01042-1.56128,3.59511-1.11174,2.36546,.67103,4.7723,1.04151,7.23392,1.08231,3.01787,.04999,5.98774-.32312,8.95227-.85422,3.67381-.65817,7.20434-1.67164,10.32543-3.80095,.30075-.20519,.3851-.21601,.65703,.0623,.77538,.79361,1.32395,1.73243,1.90971,2.65467,.9123,1.4364,1.64205,3.01697,2.90746,4.18993,2.53677,2.35139,5.56851,3.0418,8.92317,2.43258,2.71046-.49222,5.12682-1.72913,7.46798-3.1059,2.28077-1.34124,4.67474-2.51221,6.69539-4.26184,.32824-.2842,.45134-.23652,.5218,.18799,.08521,.51343,.22644,1.01524,.24829,1.54176,.04556,1.0978-.00417,2.21687,.19758,3.28721,.40774,2.16317,1.91396,3.41486,3.89194,4.12809,2.2114,.79742,4.47498,.71946,6.75894,.30954,3.50565-.62922,6.28874-2.34727,8.3215-5.29128,1.11725-1.6181,1.92367-3.40793,2.92226-5.08908,2.30123-3.8742,4.62671-7.73436,6.98481-11.57416,.62056-1.01048,1.137-2.1141,2.10733-2.98868,.17597,.9944-.03782,1.888-.14535,2.76649-.19382,1.58319-.44842,3.16356-.50291,4.7554-.07134,2.08458-.11103,4.17727-.01106,6.25911,.17546,3.65315,2.27518,6.16543,5.3302,7.77889,2.5973,1.37169,5.4929,1.38868,8.35271,.774,1.56152-.33565,2.88725-1.03631,3.65012-2.56494,.44231-.88632,.96267-1.73772,1.497-2.57346,3.40764-5.3299,6.83793-10.64533,10.23555-15.98158,.4809-.7553,1.05179-1.37573,1.86321-1.89768,.0499,.61597,.13686,1.17469,.13259,1.73271-.01287,1.67561-.11159,3.36174-.04902,5.025,.15656,4.16123-.66576,8.19095-1.32578,12.24878-.29785,1.83123,.05187,3.41939,1.52157,4.69669,1.69666,1.47453,3.63212,2.27791,5.86916,2.52523,2.78921,.3084,5.05972-.61265,6.69588-2.81231,2.31195-3.10811,4.46028-6.33734,6.7173-9.48705,1.07448-1.49943,2.00952-3.10606,3.27669-4.46074,.83437-.89198,.86906-.87192,1.23335,.33792,.85975,2.85525,1.61592,5.74221,2.38889,8.61911,1.11401,4.14607,5.42478,6.46365,9.48579,6.00868,3.40629-.3816,6.55629-1.63372,9.53585-3.31393,2.19769-1.23928,4.27115-2.67658,6.40884-4.01137,.31137-.1944,.50906-.31462,.83839,.00893,1.14329,1.12307,2.2953,2.24099,3.50057,3.29624,1.04958,.91892,2.03364,1.97035,3.39525,2.43873,2.85519,.98221,5.51498,.37654,7.99971-1.16663,1.71341-1.06412,2.78362-2.57952,2.74021-4.67413-.02858-1.37958-.76204-2.45679-1.69228-3.42717-1.66286-1.73459-2.99857-3.68836-3.45659-6.08383-.41605-2.17586-.47398-4.40128-.58235-6.61084-.08102-1.65134-.00053-3.30994-.02749-4.96473-.03389-2.08084,.1585-4.14848,.49602-6.19008,.39071-2.36335,.79245-4.72869,.92715-7.11434,.16264-2.88099,.07044-5.75982-.53047-8.61469-.59282-2.81638-2.1032-4.77422-4.89414-5.58491-1.90808-.55425-3.85454-.46746-5.77126,.0486-6.30581,1.6978-12.10495,4.52592-17.60815,7.98467-4.27333,2.6858-8.18429,5.84305-11.84616,9.3147-1.51242,1.43385-2.9987,2.8897-4.41441,4.42053-1.41492,1.52997-2.87488,3.01841-4.32166,4.51872-.10257,.10635-.18665,.33644-.38415,.23218-.16003-.08448-.30392-.24086-.30044-.45304,.00272-.16439,.01258-.33391,.05508-.49153,.40942-1.5187,.82152-3.03674,1.24216-4.55239,1.25848-4.5346,2.7094-8.98534,5.13613-13.07129,1.36796-2.3033,.47447-4.3011-1.28028-5.91438-2.09536-1.92639-4.58618-2.84389-7.47096-2.51204-1.50741,.1734-2.97079,.55636-4.07427,1.62523-3.23572,3.13425-6.39625,6.34499-9.52845,9.58382-3.23242,3.34251-6.50675,6.6445-9.76901,9.95807-.15776,.16021-.37585,.26104-.67798,.46535ZM70.17204,77.99342c.18491,0,.35704,.03511,.50913-.00525,2.38482-.63298,4.78897-1.18573,7.20971-1.65692,2.44803-.47651,4.90282-.92442,7.36523-1.31875,1.75583-.28118,3.52736-.46976,5.29588-.66303,.50111-.05477,.64902-.31654,.73292-.74954,.27251-1.40641,.54664-2.81331,.86381-4.21012,.85175-3.75112,1.67756-7.50919,2.60647-11.24142,.78631-3.15932,1.721-6.28143,2.55689-9.42881,1.47705-5.56162,3.20621-11.04775,4.94568-16.53018,.16748-.52786,.00666-.49559-.36375-.49572-2.05825-.00072-4.11652-.00814-6.17476-.01622-2.96539-.01164-5.92589,.05972-8.88735,.26232-2.13822,.14628-4.27236,.34324-6.4113,.47288-.73187,.04436-1.12642,.29524-1.28834,1.10476-.36315,1.81568-.88151,3.59979-1.30987,5.40312-.65039,2.73813-1.29462,5.47795-1.91073,8.22393-.63763,2.84189-1.24944,5.68971-1.85155,8.53937-.3646,1.72556-.70851,3.45603-1.02719,5.19063-.4216,2.29482-.81398,4.59505-1.21037,6.89443-.3247,1.88351-.64607,3.76768-.95175,5.65433-.24421,1.5073-.46256,3.01879-.69875,4.57018Zm57.247-42.917c-.47857-.14494-.45623,.3179-.52774,.50117-1.49113,3.8213-2.98337,7.64208-4.34836,11.5116-1.64136,4.653-3.20055,9.33106-4.6462,14.04963-1.25289,4.08941-2.37546,8.21318-3.50709,12.33571-.09945,.36232,.00113,.48325,.3623,.57147,.60879,.14869,1.23385,.13563,1.84286,.1937,2.71791,.25916,5.42473,.6174,8.11203,1.06525,3.109,.51812,6.19347,1.19639,9.2687,1.89295,.62553,.14168,.66488-.09842,.78875-.51192,.46378-1.54799,.94136-3.09189,1.41765-4.63612,1.19138-3.86265,2.50646-7.68439,3.92162-11.46933,1.19547-3.1974,2.44229-6.37729,3.74532-9.53234,1.24172-3.00656,2.57847-5.97409,3.89224-8.95049,.19374-.43893,.19381-.58067-.33534-.79258-4.46199-1.78697-9.0257-3.26371-13.64787-4.56433-2.10259-.59164-4.2253-1.11178-6.33888-1.66435Zm20.34768,85.60222c.21936,.05508,.22124-.10476,.24342-.27768,.2169-1.69111,.47739-3.37756,.69306-5.06718,.35916-2.81373,.86488-5.60251,1.34894-8.39254,.52229-3.01044,1.17145-6.00298,1.87992-8.97603,.96096-4.03266,1.97472-8.05461,3.20255-12.01721,.11138-.35947,.04118-.4704-.29991-.61453-2.32037-.98065-4.68776-1.83844-7.06228-2.6705-3.86416-1.35404-7.78099-2.54434-11.73233-3.62244-.54392-.1484-.6872-.05043-.834,.4899-.98985,3.64311-1.90761,7.30206-2.74408,10.98431-.72012,3.17001-1.38639,6.35024-1.96862,9.54614-.38924,2.13656-.74195,4.2817-1.05626,6.43349-.27314,1.87004-.56403,3.73961-.82441,5.61204-.25171,1.8101-.39774,3.6351-.66196,5.44309-.06717,.4596,.06608,.4597,.40812,.48205,1.28457,.08398,2.57178,.15533,3.85011,.30072,2.23833,.2546,4.47277,.54601,6.70518,.84898,1.96463,.26661,3.92619,.55432,5.86798,.96757,.9877,.2102,1.98925,.3553,2.98454,.52982Zm32.12429-36.44373c.43013-.0441,.38733-.52333,.49658-.81442,1.52976-4.07572,3.19855-8.09294,5.0333-12.04042,.78828-1.69594,1.61662-3.37326,2.42208-5.06127,.18702-.39198,.30116-.66412-.2024-1.05148-1.89542-1.45803-3.78726-2.91988-5.7017-4.35409-3.79107-2.84013-7.70982-5.49013-11.7106-8.02329-.38447-.24342-.54862-.18238-.72937,.20473-1.51753,3.25031-3.11633,6.4647-4.55514,9.74925-1.92739,4.39987-3.739,8.85135-5.32621,13.38801-.93358,2.66838-1.80667,5.35787-2.71822,8.03402-.11006,.32305-.10876,.50805,.25931,.66427,3.45438,1.46615,6.87299,3.01125,10.21889,4.71307,.27367,.1392,.3114,.06791,.37747-.24064,.21089-.98497,.61435-1.86995,1.34627-2.62479,1.82742-1.88467,4.12478-2.59416,6.6405-2.70244,1.34819-.05804,2.71329-.15254,4.14925,.1595Zm42.42083,35.37535c.20138-.11347,.22237-.33716,.2858-.56147,1.15139-4.07225,2.42768-8.10479,3.88164-12.0799,.99495-2.72019,2.08867-5.40127,3.2337-8.06121,.13554-.31486,.12614-.49588-.18185-.70446-3.07712-2.08389-6.09362-4.25276-9.07026-6.4782-2.44332-1.82671-4.87654-3.6657-7.25257-5.57942-1.25511-1.01088-2.50718-2.02552-3.76559-3.03224-.21226-.16981-.38362-.30555-.56258,.11209-.71083,1.6589-1.50032,3.28418-2.20735,4.9446-2.57563,6.04883-4.83413,12.21195-6.68124,18.52542-.18243,.62354-.06148,.84853,.47393,1.13503,2.09482,1.12091,4.16995,2.27965,6.23521,3.45452,4.99349,2.84063,10.07795,5.50988,15.19851,8.11203,.12477,.06341,.24869,.12844,.41266,.21321Zm-24.18402-11.58957c.17709-.31819-.21059-.34821-.40282-.45867-2.59954-1.49374-5.20366-2.97957-7.8124-4.45722-1.66989-.94586-3.34748-1.8782-5.02669-2.80748-.20952-.11595-.47723-.40028-.5698,.15048-.16563,.98553-.33076,1.97574-.58261,2.94144-1.19818,4.5943-2.40745,9.18564-3.84004,13.71509-1.15879,3.66381-2.46988,7.27276-3.84449,10.85941-.14792,.38598-.04216,.46086,.32863,.62264,1.66265,.72535,3.45817,.99005,5.15037,1.68795,3.60156,1.48538,7.35256,2.6064,11.0264,3.92116,.55713,.19938,.61327-.03279,.65984-.43048,.19599-1.67324,.33035-3.35602,.59344-5.01852,.43131-2.72578,.92267-5.44269,1.43013-8.15561,.59548-3.18339,1.2742-6.34932,2.1321-9.47496,.27316-.99521,.49273-2.00512,.75795-3.09524ZM47.32057,80.56821c.29941-.90547,.18825-1.82126,.31882-2.71021,.16925-1.15235,.21917-2.32166,.34823-3.48058,.21291-1.91195,.45291-3.82086,.67246-5.73209,.20329-1.7697,.36827-3.5442,.59788-5.31039,.30507-2.34673,.65066-4.68827,.99-7.03042,.22387-1.54519,.4669-3.0876,.70224-4.63112,.19624-1.28712,.39112-2.57446,.59136-3.86096,.30861-1.98276,.61198-3.96641,.93571-5.94672,.19799-1.21111,.44014-2.41498,.6398-3.62584,.05336-.32365,.07546-.63516-.47488-.41774-.65156,.25741-1.35136,.39075-2.026,.59211-6.19103,1.84777-12.22486,4.13456-18.21847,6.53256-.40863,.16349-.98132,.28027-1.1455,.59304-.17772,.33858,.34515,.72222,.5298,1.10297,.02049,.04224,.04519,.08245,.06548,.12479,1.21434,2.53365,2.40059,5.08124,3.65014,7.59742,1.31223,2.64238,2.57878,5.30578,3.85054,7.96748,1.32029,2.76326,2.60151,5.54363,3.87968,8.3262,1.48836,3.24016,2.88797,6.51531,4.09273,9.9095Zm39.49456,39.22173c.15845-.23379,.23294-.31936,.28081-.41785,1.63513-3.36363,3.26582-6.7294,4.9014-10.0928,.95537-1.96462,1.93817-3.91617,2.87265-5.89062,1.4688-3.10338,2.88433-6.23207,4.36564-9.32939,1.24377-2.60063,2.55771-5.16763,3.82338-7.75793,.53574-1.09642,1.3785-1.94924,2.31423-2.65025,1.58138-1.18471,3.39887-1.82179,5.41402-1.75168,.3117,.01083,.46125-.01794,.54493-.42082,.41031-1.97518,.88357-3.9376,1.35616-5.89933,.09125-.37876-.09552-.42808-.36624-.41036-1.24824,.08171-2.48336-.15376-3.72752-.14593-3.64064,.0229-7.28298-.12522-10.92156,.11825-1.71823,.11498-3.43749,.21591-5.15721,.30556-.31664,.01651-.43021,.10102-.49867,.44035-.4337,2.14977-.79015,4.31209-1.16786,6.47171-.40296,2.30407-.77713,4.61134-1.11747,6.92451-.224,1.52246-.47134,3.04095-.63099,4.57388-.17919,1.72055-.45663,3.43064-.66205,5.14878-.1326,1.10918-.20251,2.22569-.31847,3.33705-.1754,1.68092-.39172,3.35793-.54343,5.04086-.14147,1.5695-.21359,3.14511-.33002,4.71702-.18535,2.50218-.35888,5.00474-.43174,7.689Zm9.15028,87.86596c-2.0928-2.54628-3.89505-5.14664-5.10172-8.10561-.59118-1.4497-1.26577-2.68022-2.94574-3.12164-1.47996-.38887-2.96598-.31353-4.45816-.37276-.50782-.02017-.68483,.17946-.85483,.5978-1.49755,3.68499-3.33424,7.18404-5.74724,10.36347-.50703,.66808-.50929,.68676-.99691,.03481-2.09958-2.80716-3.89403-5.78137-4.89006-9.17416-.37219-1.26778-1.27525-1.90469-2.47023-2.23697-1.78011-.49494-3.60244-.208-5.4053-.28252-.34538-.01428-.29194,.14343-.22313,.40217,.87452,3.28837,2.33748,6.30743,4.14044,9.17718,1.28693,2.04842,2.87147,3.86097,4.40716,5.71835,1.68572,2.03888,3.76007,2.98951,6.40348,2.66351,.19981-.02465,.35087-.06603,.49994-.20591,2.29479-2.15384,4.31537-4.53237,5.89267-7.2637,.62051-1.0745,1.16694-2.19178,1.77709-3.34631,.1465,.30293,.26,.52912,.36625,.75866,1.3038,2.81686,3.04773,5.34566,5.09483,7.66428,.95472,1.08134,1.96479,2.15147,3.51933,2.32299,.73407,.081,1.48248,.02325,2.22158,.07146,.373,.02434,.61275-.11936,.86861-.3632,2.86828-2.73346,5.44801-5.69222,7.43458-9.14833,1.14532-1.99253,2.2821-3.98398,3.18124-6.10258,.29607-.69764,.07203-1.24248-.5055-1.65633-.44125-.3162-.94188-.53952-1.49345-.54827-1.31925-.02096-2.63947,.00524-3.9581-.03105-.37207-.01021-.51838,.16102-.59,.44617-.48646,1.93681-1.29437,3.74636-2.1878,5.51987-1.09961,2.18285-2.40629,4.23501-3.97904,6.21863ZM58.84703,113.77704c2.30208-1.84641,4.55383-3.64151,6.78655-5.45997,.22556-.18372,.64687-.21771,.60149-.69049-.06435-.67038,.09703-1.33656,.11865-2.0037,.11126-3.43284,.43091-6.84909,.72158-10.26917,.16923-1.99106,.37504-3.97675,.57344-5.96439,.29482-2.95364,.60005-5.90465,1.02055-8.84333,.06514-.45523,.06955-.76-.61166-.55485-3.3616,1.01235-6.70512,2.07243-10.00013,3.28841-2.74835,1.01426-5.46969,2.09141-8.16792,3.23153-.37263,.15746-.41764,.348-.31753,.62885,.78392,2.199,1.57825,4.39433,2.3776,6.58779,1.6232,4.45413,3.25056,8.90676,4.87824,13.35926,.79236,2.16748,1.33244,4.41272,2.01912,6.69007Zm252.74536,16.92632c.31263,.04473,.34448-.10876,.42779-.39164,.73434-2.49388,1.4296-5,2.274-7.46094,.52481-1.52935,1.00782-3.07299,1.51751-4.60757,.08243-.24817,.1862-.42235-.22296-.48067-3.01481-.4297-6.00773-.98732-8.99586-1.57293-3.06532-.60073-6.11606-1.26881-9.14536-2.02713-2.72912-.68318-5.452-1.39679-8.15381-2.17925-.60142-.17418-.70341,.08512-.85709,.47004-1.44568,3.62101-2.92164,7.23016-4.19999,10.91602-.15488,.44654-.10537,.58486,.37619,.71993,2.00311,.56186,3.97978,1.21835,5.98444,1.77419,2.79925,.77617,5.60169,1.54864,8.42704,2.2209,3.01597,.71765,6.05841,1.32502,9.09287,1.96361,1.15328,.24272,2.31653,.43835,3.47522,.65544Zm-51.41507-29.67786c-.02406-.29846-.26444-.30313-.41122-.37781-1.66436-.84702-3.33483-1.68101-4.99335-2.54059-3.88004-2.01094-7.67864-4.1628-11.42066-6.41606-1.9559-1.17774-3.91445-2.35341-5.79047-3.65794-.41111-.28587-.65327-.23074-.88748,.24441-.54214,1.0998-1.15971,2.16226-1.70965,3.25844-1.04777,2.08852-2.07401,4.1879-3.09803,6.28821-.17138,.35148-.17955,.61458,.26297,.891,2.48902,1.55477,4.91008,3.22,7.41938,4.7402,4.92944,2.98638,9.9638,5.78966,15.10455,8.40014,.41417,.21032,.53553,.13752,.70195-.2713,1.42083-3.49043,2.99866-6.91063,4.67029-10.28778,.05079-.10263,.11187-.20018,.15171-.27091Zm-19.21582,112.44059c1.59309,.0639,3.66231-.15553,5.71312-.5846,2.78965-.58366,5.42327-1.52027,7.51395-3.55069,2.07345-2.01372,2.93887-4.44876,2.06049-7.27644-.70014-2.25394-2.45383-3.62022-4.45619-4.6854-2.90138-1.54341-6.06499-2.10004-9.29072-2.28109-2.80278-.15731-5.59799,.05691-8.3448,.69774-2.81401,.65652-5.4665,1.66094-7.43383,3.89548-1.62465,1.84529-2.33374,3.97876-1.66362,6.44569,.60096,2.21233,2.14015,3.64285,4.03249,4.72809,3.51614,2.01653,7.36836,2.64636,11.8691,2.61122Zm-196.15559-.00362c1.97913,.07299,4.28304-.19236,6.55118-.73243,2.71961-.64752,5.27662-1.66261,7.20619-3.78556,1.67662-1.84462,2.39078-4.00034,1.76773-6.50216-.48083-1.9308-1.73458-3.28116-3.32117-4.3356-3.17221-2.10821-6.78854-2.79548-10.49821-3.0195-2.82494-.17061-5.64581,.05282-8.41034,.70479-2.95198,.69619-5.72305,1.77246-7.68978,4.24142-1.47744,1.85474-2.0102,3.96144-1.31748,6.27406,.69853,2.33201,2.45396,3.75521,4.49127,4.83313,3.39047,1.79389,7.06602,2.37205,11.22061,2.32185Zm234.27734-8.38763c.02188-.12477,.13737-.0972,.21973-.10709,2.04772-.24549,3.90988-.91112,5.30957-2.50012,.62813-.71308,1.0171-1.53643,.80739-2.56555-.29915-1.46807-1.30269-2.30667-2.51811-2.96444-2.45415-1.32817-5.15958-1.61163-7.86856-1.7039-4.22162-.14373-8.43709,.06947-12.63742,.54479-.47147,.05338-.61882,.2426-.61701,.72055,.01745,4.58083,.00803,9.16179,.01195,13.74269,.00114,1.32922,.56999,2.03661,1.84352,2.51073,1.45194,.54049,2.95184,.37095,4.44105,.42461,.45642,.01645,.60643-.09355,.59913-.57933-.02984-1.99021-.0025-3.98121-.02093-5.97171-.00364-.39428,.09283-.51332,.50769-.5307,1.03241-.04324,2.05021,.11839,3.0691,.19598,1.13125,.08613,2.30086,.2242,3.24518,.97922,1.21971,.97518,2.06148,2.28298,3.01416,3.4919,.69091,.87678,1.35754,1.75859,2.50721,2.11404,1.55268,.48004,3.1425,.51127,4.72965,.39911,.59377-.04198,1.26347-.10727,1.76162-.57592-.88402-.59239-1.63525-1.31817-2.3104-2.11988-1.77002-2.10176-3.2347-4.54235-6.08952-5.42759-.00775-.00239-.00327-.04417-.00501-.0774Zm-121.42861,.09984c1.68279-.34405,3.23688-.82576,4.59809-1.79892,1.72429-1.23271,2.39053-2.99438,1.28093-4.73638-.53409-.83848-1.3517-1.39944-2.22535-1.82796-2.41828-1.18618-5.04309-1.5034-7.68106-1.57902-4.1494-.119-8.29384,.04184-12.42258,.53551-.58409,.06986-.80777,.20239-.80403,.83381,.02657,4.48421,.05296,8.96916-.00451,13.4528-.02374,1.85258,.98345,2.46182,2.21356,2.82535,1.35094,.39922,2.73907,.24571,4.11477,.3004,.50181,.01996,.57745-.16449,.57249-.60601-.02183-1.94219,.01634-3.88531-.02542-5.82683-.01223-.56849,.17542-.64067,.6819-.6554,.91223-.0265,1.80315,.14533,2.70749,.18382,1.74605,.07436,3.35766,.53924,4.50287,2.00282,.61102,.78088,1.22145,1.56231,1.82551,2.34859,.78183,1.01765,1.56539,2.03471,2.91368,2.34018,.50331,.11401,1.01184,.23536,1.524,.2742,1.54895,.11755,3.10585,.24238,4.61078-.44806-.0699-.10483-.09544-.17862-.14725-.2157-1.51458-1.0828-2.5737-2.58548-3.72378-4.00751-.95495-1.18074-1.96476-2.31222-3.39348-2.95182-.36578-.16376-.74536-.29677-1.1186-.44388ZM195.48686,55.14952c-1.95864,3.2452-3.79195,6.49217-5.50889,9.8054-.1943,.37492-.14171,.57786,.16212,.81882,2.77461,2.2004,5.4984,4.46224,8.20415,6.74691,3.13513,2.64721,6.30428,5.25411,9.45289,7.88541,.42023,.35118,.69735,.42431,.97402-.17927,1.31026-2.85865,2.89855-5.5735,4.3755-8.34599,.25448-.47767,.76848-.96132,.73348-1.40868-.03547-.45354-.69547-.75992-1.1383-1.06741-.05826-.04047-.10124-.10224-.15604-.14855-1.65313-1.39685-3.29938-2.80194-4.96235-4.187-2.09868-1.74795-4.20466-3.48731-6.31941-5.21579-1.92873-1.57642-3.87342-3.13336-5.81717-4.70383Zm49.6803,75.89099c-1.63601-.68483-3.24354-1.37914-4.86737-2.03303-3.49666-1.40805-6.92255-2.97656-10.34387-4.55379-2.00005-.92202-3.96483-1.92042-5.94813-2.87897-.26629-.12871-.45268-.16948-.53732,.25789-.18229,.92038-.45584,1.8224-.68053,2.73477-.27311,1.10905-.26121,1.08396,.89527,1.38147,2.02216,.52023,3.61106,1.67312,4.63328,3.49327,.70058,1.24742,.44732,2.68036,.30077,3.98577-.24785,2.20786-.99162,4.33023-1.57688,6.47733-.48366,1.77431-1.17352,3.51759-.98086,5.42525,.03378,.33442,.12285,.51817,.42129,.61107,1.67606,.52176,3.35291,1.04098,5.02913,1.56221,.45064,.14012,.7399,.02022,1.02742-.39888,.72564-1.05765,1.49821-2.08613,2.29961-3.08823,1.78443-2.23126,3.47659-4.53328,5.26593-6.76177,1.66038-2.06789,3.34116-4.11801,5.06226-6.21438Zm-119.15717,64.31735c-2.70197,.11082-6.06072-.2068-9.4042,.14942-1.92078,.20464-3.0005,.85085-3.48195,2.60806-.39424,1.43886-.58059,2.91494-.63657,4.40091-.04601,1.22162-.00591,2.44634-.01011,3.66966-.00856,2.48533,1.1333,4.24972,3.31453,5.40517,2.33024,1.23438,4.87887,1.61364,7.43393,1.67805,3.43418,.08653,6.88135,.22929,10.31222-.23525,1.80341-.24418,2.66348-1.0523,2.6686-2.63051,.00128-.39525-.07959-.56015-.50282-.51805-1.08597,.10802-2.17455,.26667-3.26214,.26702-3.20671,.00109-6.41895,.20081-9.61859-.13148-.85866-.08919-1.70969-.29835-2.41676-.88274-.94863-.78398-.98995-1.85732-1.05156-2.95653-.03135-.55937,.1543-.64853,.67297-.6567,3.46999-.05464,6.94673,.2139,10.40878-.14448,1.15018-.11906,2.1791-.44666,2.04213-2.12958-.04299-.5282-.11206-.716-.69774-.71157-3.9348,.02971-7.86993,.01492-11.80495,.01645-.33396,.00012-.72345,.06986-.60467-.47878,.21061-.97289,.16881-1.97285,.36799-2.95625,.1256-.6202,.37776-.64053,.84673-.6393,3.45512,.00905,6.91027,.00601,10.36541,.00418,.95349-.00051,1.90314-.00467,2.85544-.13269,1.61376-.21693,2.2389-.8681,2.26409-2.38108,.00845-.50777-.12726-.63099-.6307-.62655-2.92704,.02585-5.85443,.01262-9.43006,.01262Zm-117.08659,10.93931c1.16857,.29784,2.31994,.49101,3.46813,.51515,1.99903,.04205,4.00016,.10507,5.99635-.24739,2.06475-.36455,4.02723-.94738,5.72143-2.20743,1.22496-.91105,1.98216-2.18506,1.90469-3.71294-.0889-1.75309-1.20331-2.90175-2.70991-3.71688-2.3408-1.26644-4.91215-1.57149-7.48707-1.68156-2.2159-.09474-4.44209-.08242-6.66916,.06426-2.13212,.14042-4.24725,.39409-6.36785,.61945-.48982,.05204-.75267,.20355-.74787,.81799,.03462,4.43621,.01852,8.87281,.01858,13.30928,.00002,1.56479,.60798,2.35137,2.12357,2.82976,1.35368,.42728,2.74287,.20487,4.11485,.29464,.57631,.03769,.65303-.17528,.64601-.6804-.02833-2.03716-.01174-4.07491-.01174-6.20392Zm189.22213-2.61923c0,2.15772,.06647,4.31817-.02202,6.47228-.06521,1.58739,.70234,2.29864,2.0935,2.73797,1.35283,.42724,2.73677,.20812,4.10624,.28997,.49829,.02976,.58425-.15629,.57894-.60432-.02276-1.91769,.00042-3.83592-.01784-5.75373-.00387-.40723,.06431-.51784,.50758-.43294,.99216,.19002,1.99754,.40693,3.00068,.42352,1.99724,.03303,3.99715,.1235,5.99068-.24579,1.95057-.36137,3.81963-.86452,5.46691-2.02433,2.94957-2.07674,2.91249-5.67554-.29125-7.47309-2.48867-1.39633-5.21559-1.72382-7.96661-1.82772-2.86089-.10804-5.72725-.07531-8.58909,.23082-1.40983,.15079-2.81661,.34025-4.22964,.46771-.43058,.03883-.65778,.21965-.64724,.76338,.04499,2.32468,.01916,4.65073,.01916,6.97627Zm-17.9467,9.77221c.79382-.06519,1.93458,.01625,3.08286-.10887,1.5966-.17393,3.17087-.40454,4.69574-.89992,1.53577-.49893,2.95528-1.18399,3.97855-2.52446,.8566-1.12212,1.09401-3.22596-.25885-4.38239-.7303-.62426-1.54683-1.06034-2.42498-1.39835-2.73777-1.05377-5.65405-1.16462-8.51133-1.5864-1.45893-.21534-2.932-.38033-4.29365-1.00127-1.17744-.53695-1.1219-1.42142-.33318-2.13701,.24527-.22253,.56497-.39163,.91119-.50454,1.24428-.40588,2.5251-.47946,3.8173-.60133,2.12956-.20087,4.21953-.00805,6.31677,.27461,1.43415,.19324,2.79327,.62748,4.09648,1.24685,.26212,.12457,.46827,.24564,.50934-.22534,.16101-1.84645-.32183-2.67173-2.01212-3.38882-2.05879-.87338-4.25491-1.00744-6.43645-1.12126-1.44883-.07559-2.90651-.06327-4.36687,.09107-1.48103,.15654-2.94985,.33869-4.37609,.75472-1.84301,.5376-3.61486,1.23795-4.91451,2.75017-1.10765,1.28881-1.28072,2.90531,.05081,4.1499,.82674,.7728,1.83904,1.19839,2.88616,1.54604,3.02283,1.00368,6.2116,1.04984,9.31529,1.589,1.08095,.18778,2.18127,.31087,3.16916,.84809,.89428,.48628,1.04123,1.31362,.40763,2.11144-.341,.42935-.79489,.65406-1.28903,.80655-1.00093,.30891-2.03989,.35816-3.07601,.47497-2.10564,.23748-4.17104,.02753-6.24085-.275-1.72218-.2517-3.37406-.74706-4.95848-1.46921-.20625-.09398-.4241-.1523-.44433,.20485-.06621,1.16835-.02563,2.29752,1.07118,3.05793,.56502,.39177,1.18846,.65691,1.84118,.86415,2.42429,.76964,4.9228,.89917,7.78706,.8538Zm147.54665,.00186c2.57191,.08119,5.13882-.14215,7.63677-.86933,1.6816-.48951,3.29525-1.14101,4.38926-2.62937,1.06716-1.4518,1.14371-3.39669-.48343-4.66617-.6498-.50694-1.38759-.86419-2.15762-1.15559-3.05689-1.15688-6.31674-1.19683-9.48808-1.723-1.10821-.18388-2.20795-.39592-3.25669-.81009-.50818-.20069-.9598-.56865-.96378-1.10469-.00397-.54056,.31988-1.01824,.8604-1.29658,.33373-.17184,.67139-.31769,1.02989-.42306,1.12016-.32927,2.27695-.34775,3.42731-.46838,2.10802-.221,4.18029-.00859,6.25414,.25987,1.45062,.18779,2.83828,.62897,4.16144,1.26272,.17161,.08221,.3829,.27538,.48811-.09509,.37095-1.30635-.20911-2.58416-1.4406-3.23812-2.19586-1.16613-4.61648-1.2504-7.00303-1.40093-1.44566-.09119-2.90468-.06807-4.36465,.08812-1.48099,.15845-2.94933,.34292-4.37717,.75453-1.84941,.53309-3.62138,1.24012-4.91807,2.75879-1.07492,1.25898-1.32763,2.85554,.06278,4.14466,.9552,.8856,2.13877,1.32307,3.35395,1.69079,2.8856,.87325,5.90463,.93238,8.85065,1.43825,1.01562,.17442,2.04239,.32061,2.99094,.73812,1.11457,.49057,1.27901,1.52928,.42723,2.38394-.32761,.32871-.72506,.51921-1.1551,.65241-1.00272,.31056-2.04183,.35259-3.07787,.46938-2.10584,.23741-4.16963,.02056-6.24092-.28072-1.72554-.25103-3.37385-.7523-4.95987-1.4704-.22789-.10317-.44129-.10235-.4215,.23235,.03209,.54296-.0786,1.08665,.08004,1.63096,.40649,1.39478,1.58201,1.86609,2.76714,2.25391,2.4351,.79684,4.9631,.9306,7.52833,.87273ZM154.40837,31.82494c-.36926-.021-.37118,.25813-.45668,.42497-.75716,1.47733-1.50419,2.95991-2.24511,4.44548-.58439,1.17174-1.14637,2.35473-1.73786,3.52283-.24149,.4769-.24349,.77428,.36023,.95808,.57908,.1763,1.12549,.46184,1.68295,.70689,2.97804,1.30902,5.92639,2.68088,8.81138,4.18558,2.70826,1.41253,5.36444,2.919,7.99547,4.46918,.32105,.18917,.47045,.19412,.64555-.1543,1.48579-2.95622,3.06334-5.8634,4.72283-8.72572,.23579-.40669,.21947-.64181-.25555-.88194-2.05105-1.03677-4.06024-2.15742-6.12249-3.17064-4.26344-2.09474-8.60629-4.01182-13.0758-5.63178-.13083-.04742-.25406-.11586-.32492-.14863Zm-50.2905-1.16969c.80916-.04049,1.55971,.07742,2.31496,.1397,1.40092,.11551,2.81305,.13675,4.20417,.32079,2.72528,.36054,5.45886,.65123,8.17515,1.09747,2.32554,.38205,4.64164,.80454,6.95091,1.26684,.40381,.08084,.57952,.02255,.74078-.36805,1.03303-2.50222,2.09066-4.99431,3.14637-7.48713,.10484-.24756,.12106-.34674-.21125-.42171-.94852-.21397-1.91411-.30145-2.86872-.46334-2.05814-.34905-4.13025-.59076-6.20429-.80797-1.80215-.18874-3.60306-.39072-5.41536-.48973-2.60143-.14212-5.19724-.38476-7.80605-.39054-.2807-.00062-.44088,.08359-.52625,.33157-.82611,2.39946-1.65052,4.79951-2.50041,7.2721Zm199.26299,164.70261c-3.6932,0-7.38657-.01919-11.07944,.01332-.93516,.00822-1.87648,.12955-2.75415,.53077-.36951,.1689-.70921,.36459-.9819,.66738-.4767,.52938-.38025,1.2018-.24507,1.76372,.08914,.37058,.67337,.15516,1.02898,.15743,2.61391,.01671,5.22819,.02748,7.84181-.00531,.57718-.00724,.75948,.10416,.75371,.7255-.03403,3.66782,.01487,7.3365-.03019,11.00409-.02225,1.81491,.91861,2.31133,2.01799,2.66672,1.37076,.44314,2.78728,.21872,4.18352,.29854,.56948,.03256,.7013-.14225,.69824-.6998-.02418-4.43521-.00056-8.87068-.02893-13.30582-.00376-.58636,.17453-.6944,.71322-.68746,2.0619,.02664,4.12538,.03969,6.1864-.01462,1.17454-.03094,2.2469-.44402,3.12304-1.26994,.48336-.45566,.44804-1.07289,.30863-1.60086-.12679-.48008-.66865-.23072-1.01608-.23249-3.57319-.0182-7.14648-.01117-10.71978-.01117ZM54.8846,35.55543c.01234,.45669,.01178,.45444,.47398,.33902,4.49045-1.12132,8.98999-2.19121,13.55966-2.9613,2.7483-.46314,5.48875-.95861,8.25796-1.28995,.54515-.06523,1.20757,.02941,1.39446-.89413,.37621-1.85907,.91492-3.68593,1.41059-5.51959,.09166-.33907,.11133-.38073-.2907-.3361-2.21027,.24536-4.38661,.69574-6.56628,1.10373-2.53927,.4753-5.05321,1.08988-7.57108,1.67443-3.08322,.71581-6.1315,1.56648-9.17342,2.43972-.40579,.11649-.61617,.30954-.64793,.78266-.04387,.65362-.2106,1.29944-.33143,1.94735-.17255,.92529-.35118,1.84944-.51581,2.71417Zm233.35238,117.48828c2.62158-2.79682,5.10861-5.53909,7.95194-8.0187-1.69752-.2775-3.28892-.49329-4.85617-.82362-.41547-.08757-.51206,.04874-.59845,.31296-.90569,2.77055-1.77123,5.55315-2.49732,8.52936Zm-222.49634-24.05718c-.60743,.72699-1.30498,1.29103-1.53036,2.27953,1.81088-.97314,1.62835-.4971,1.53036-2.27953Zm248.98589,3.21114q-1.54388-.29318-1.57931,.80945l1.57931-.80945Z"/><path class="c" d="M342.68407,135.1705c-.45644,.7304-.41211,1.5882-.57718,2.3873-.32859,1.59085-.5936,3.19612-.83899,4.80244-.19309,1.2639-.35622,2.53531-.45507,3.80938-.04615,.59485-.21207,.83867-.83839,.81319-.76046-.03096-1.52489,.04849-2.28789,.05831-.28543,.00368-.54365,.031-.35661-.46899,.17453-.46641,.10602-1.02046,.16518-1.53633,.22015-1.91979,.25179-3.85872,.14011-5.78309-.08102-1.39548-.14767-2.80964-.51725-4.17947-.05361-.19855-.214-.53285,.29516-.50726,1.64676,.08279,3.29542,.12746,4.943,.19529,.1108,.00456,.21868,.07928,.32793,.12136v.28787Z"/><path class="d" d="M260.14524,150.49331c.30212-.20431,.52022-.30515,.67798-.46535,3.26226-3.31356,6.53659-6.61556,9.76901-9.95807,3.1322-3.23884,6.29273-6.44958,9.52845-9.58382,1.10348-1.06887,2.56686-1.45183,4.07427-1.62523,2.88479-.33184,5.3756,.58565,7.47096,2.51204,1.75475,1.61328,2.64824,3.61107,1.28028,5.91438-2.42673,4.08595-3.87765,8.53669-5.13613,13.07129-.42064,1.51565-.83273,3.03368-1.24216,4.55239-.0425,.15762-.05236,.32714-.05508,.49153-.00348,.21218,.14041,.36856,.30044,.45304,.1975,.10426,.28158-.12582,.38415-.23218,1.44679-1.50031,2.90674-2.98876,4.32166-4.51872,1.41571-1.53083,2.90199-2.98668,4.41441-4.42053,3.66188-3.47164,7.57283-6.6289,11.84616-9.3147,5.5032-3.45876,11.30234-6.28687,17.60815-7.98467,1.91672-.51606,3.86319-.60285,5.77126-.0486,2.79093,.81068,4.30131,2.76853,4.89414,5.58491,.60091,2.85487,.69311,5.7337,.53047,8.61469-.1347,2.38565-.53644,4.75099-.92715,7.11434-.33752,2.0416-.5299,4.10924-.49602,6.19008,.02696,1.65479-.05354,3.31339,.02749,4.96473,.10837,2.20956,.1663,4.43498,.58235,6.61084,.45802,2.39547,1.79373,4.34924,3.45659,6.08383,.93024,.97038,1.66371,2.04759,1.69228,3.42717,.04341,2.09461-1.0268,3.61001-2.74021,4.67413-2.48473,1.54316-5.14452,2.14883-7.99971,1.16663-1.36162-.46838-2.34567-1.51981-3.39525-2.43873-1.20526-1.05525-2.35727-2.17317-3.50057-3.29624-.32933-.32354-.52702-.20333-.83839-.00893-2.13768,1.33479-4.21115,2.77209-6.40884,4.01137-2.97956,1.68021-6.12956,2.93234-9.53585,3.31393-4.06102,.45497-8.37178-1.86261-9.48579-6.00868-.77297-2.8769-1.52915-5.76385-2.38889-8.61911-.36429-1.20983-.39898-1.2299-1.23335-.33792-1.26717,1.35468-2.2022,2.96131-3.27669,4.46074-2.25702,3.14972-4.40536,6.37894-6.7173,9.48705-1.63616,2.19967-3.90667,3.12071-6.69588,2.81231-2.23704-.24732-4.1725-1.0507-5.86916-2.52523-1.46971-1.2773-1.81943-2.86546-1.52157-4.69669,.66002-4.05783,1.48234-8.08755,1.32578-12.24878-.06257-1.66326,.03615-3.34939,.04902-5.025,.00427-.55802-.08269-1.11674-.13259-1.73271-.81141,.52195-1.3823,1.14238-1.86321,1.89768-3.39763,5.33624-6.82791,10.65168-10.23555,15.98158-.53433,.83574-1.05469,1.68713-1.497,2.57346-.76287,1.52863-2.0886,2.22929-3.65012,2.56494-2.85981,.61469-5.75541,.59769-8.35271-.774-3.05503-1.61346-5.15475-4.12574-5.3302-7.77889-.09997-2.08184-.06028-4.17453,.01106-6.25911,.05448-1.59183,.30908-3.17221,.50291-4.7554,.10753-.87849,.32132-1.77209,.14535-2.76649-.97033,.87459-1.48677,1.97821-2.10733,2.98868-2.3581,3.8398-4.68358,7.69996-6.98481,11.57416-.99859,1.68114-1.80501,3.47098-2.92226,5.08908-2.03276,2.944-4.81585,4.66206-8.3215,5.29128-2.28397,.40992-4.54754,.48788-6.75894-.30954-1.97798-.71324-3.4842-1.96492-3.89194-4.12809-.20175-1.07034-.15203-2.1894-.19758-3.28721-.02185-.52652-.16308-1.02833-.24829-1.54176-.07046-.4245-.19356-.47219-.5218-.18799-2.02065,1.74963-4.41462,2.9206-6.69539,4.26184-2.34116,1.37677-4.75752,2.61368-7.46798,3.1059-3.35465,.60922-6.38639-.08119-8.92317-2.43258-1.26541-1.17295-1.99516-2.75352-2.90746-4.18993-.58576-.92224-1.13433-1.86106-1.90971-2.65467-.27193-.27832-.35627-.26749-.65703-.0623-3.12109,2.12931-6.65162,3.14278-10.32543,3.80095-2.96453,.5311-5.9344,.90421-8.95227,.85422-2.46162-.0408-4.86846-.41127-7.23392-1.08231-1.58469-.44954-2.53628-.08404-3.59511,1.11174-1.34546,1.51946-2.71596,3.02188-4.35776,4.25007-.71896,.53787-1.30734,1.25204-2.03329,1.77825-1.75753,1.27391-3.78229,1.93117-5.91594,2.11898-2.50051,.22009-4.93839-.049-7.25911-1.19007-1.76065-.8657-2.56482-2.30033-2.94361-4.09622-.3346-1.58637-.007-3.19394-.15946-4.84139-.69034,.09695-1.1906,.58612-1.64398,.99533-1.732,1.56328-3.60765,2.88237-5.73109,3.85809-1.07955,.49607-2.19802,.8758-3.31523,1.26839-1.2415,.43627-2.50597,.76558-3.7964,1.02455-2.22074,.44566-4.1992-.14192-5.96589-1.43282-2.61168-1.90829-4.66466-4.30457-6.02857-7.26724-.31184-.67736-.64576-1.35765-1.19829-1.98993-.93467,1.55261-2.00798,2.94968-3.02427,4.38703-2.43817,3.44835-6.13281,4.24998-9.80555,2.66119-.8478-.36677-1.64355-.95207-2.32258-1.58716-.99242-.92816-2.07276-1.77423-2.92649-2.8471-.04382-.05507-.09347-.10555-.14109-.15754-.85192-.9303-1.00735-.88548-1.46725,.27788-.55164,1.39541-1.14298,2.77543-1.734,4.15491-.89491,2.08874-2.62847,3.1562-4.7309,3.60007-2.31037,.48776-4.63497,.42138-6.88346-.42501-1.83618-.69117-3.12363-1.93047-3.73755-3.82121-1.21295-3.73564-2.41892-7.47357-3.63873-11.20696-.99919-3.05819-2.03382-6.1049-3.01793-9.16787-1.66941-5.19589-3.3117-10.40049-4.96334-15.60209-.04216-.13276-.05218-.27553-.09147-.40944-.12985-.44255-.3348-.66389-.79798-.31461-1.07438,.81023-1.87265,1.88933-2.78216,2.85674-1.35427,1.44049-2.62687,2.95733-3.95739,4.42063-2.95897,3.25428-5.93111,6.49658-8.90025,9.7416-1.6945,1.85195-3.4181,3.67794-5.08551,5.55389-3.2614,3.66924-6.48869,7.36677-9.1776,11.49604-.94488,1.45104-1.98561,2.83965-2.9328,4.28927-.51768,.79229-.90274,1.67065-1.58343,2.35467-2.13157,2.142-4.70904,3.01348-7.70548,2.75161-2.30867-.20173-4.28845-1.09851-5.9968-2.65601-1.76977-1.6135-1.76974-3.04393-.80833-4.91857,1.63937-3.19663,3.34942-6.35714,5.03875-9.52805,2.38237-4.4717,4.76749-8.94253,6.97094-13.50572,4.01534-8.31551,7.15712-16.94325,9.2672-25.94328,.70003-2.9858,1.2615-5.98972,1.69105-9.02532,.50572-3.57385,.62249-7.1693,.79302-10.76637,.1691-3.56683,.31725-7.13436,.20616-10.70137-.08239-2.6457-.37898-5.28145-.66843-7.91682-.35099-3.19566-.84491-6.37206-1.18412-9.56813-.82842-7.80541-2.41842-15.45375-4.67687-22.97058-.98714-3.28551-1.89872-6.59265-3.10111-9.81026-.99734-2.66891,.00578-4.58794,2.2167-5.66236,2.74727-1.33505,5.68407-1.79002,8.70925-.98425,1.9782,.5269,3.3888,1.81475,4.27376,3.59862,3.29654,6.64506,6.4969,13.33686,9.68307,20.03595,3.33721,7.01665,6.1423,14.23227,8.64431,21.58361,2.06699,6.07318,4.32266,12.08267,6.53241,18.10657,.85067,2.319,1.48035,4.70243,2.21598,7.05483,.01399,.04473-.00341,.1014,.01588,.14204,.24356,.51316,.36874,1.27949,.76884,1.47143,.49801,.23891,.81436-.55156,1.22765-.87078,3.91324-3.02256,7.67813-6.23428,11.69878-9.12062,3.0235-2.17052,6.22056-2.31766,9.56409-.90464,1.13761,.48077,2.23584,1.04268,3.12689,1.93693,2.00016,2.00739,1.79951,4.85152-.50531,6.53152-2.49022,1.81515-5.03963,3.549-7.47035,5.44599-2.27493,1.77539-4.49357,3.61606-6.64339,5.54307-1.67941,1.50534-3.23866,3.12922-4.83525,4.71664-.37164,.36949-.72351,.76896-1.02485,1.19663-.44305,.62882-.5726,1.32461-.33895,2.08911,2.01256,6.58497,4.00459,13.17622,6.02907,19.75751,.50757,1.65008,.90849,3.31984,1.20905,5.01677,.02979,.16815-.07806,.41466,.24338,.41505,.23671,.0003,.43798,.00741,.62953-.22237,.54367-.65213,.82594-1.4379,1.15758-2.1897,3.52114-7.9824,7.00951-15.97923,10.53221-23.96092,3.55258-8.04941,7.47784-15.9214,11.346-23.8217,3.1195-6.37122,6.09577-12.81269,9.11761-19.23145,1.35787-2.8843,3.68879-4.30374,6.7725-4.72121,2.55892-.34643,4.91603,.19806,7.09166,1.50821,1.16016,.69865,2.07785,1.65135,2.26814,3.10671,.13239,1.01252-.20296,1.90448-.61984,2.79223-2.13807,4.55312-4.40659,9.04344-6.50502,13.61615-2.97335,6.47927-5.9223,12.96843-8.70281,19.53358-1.78706,4.21948-3.41809,8.4963-5.01506,12.79132-.92494,2.48767-1.74041,5.00498-2.55076,7.52512-.78039,2.42704-1.53502,4.86379-2.2428,7.31552-.4706,1.63015-1.07512,3.22517-1.52894,4.86692-.05823,.21067,.09754,.43963-.12584,.6481-.2115,.19737-.18016,.50148,.09959,.66488,.26438,.15444,.45434-.04059,.60362-.23177,1.30322-1.66914,2.58932-3.3518,3.90529-5.0108,1.01583-1.28064,2.05234-2.54405,3.12883-3.77677,1.16289-1.33167,2.38478-2.60308,3.61513-3.87018,4.08425-4.20621,8.74144-7.68376,13.70091-10.77247,4.36587-2.71902,8.93107-5.02885,13.86482-6.55011,2.32429-.71666,4.67212-1.34543,7.09177-1.64696,3.23858-.40359,7.04163,2.23693,7.50391,5.15526,.1608,1.0151-.10895,1.92449-.43804,2.83333-.74248,2.0506-1.49776,4.09584-2.13163,6.18422-.0873,.28757-.09754,.56217-.09768,.84604-.00252,5.1096-.00201,10.21921-.00174,15.32881,.00013,2.46377-.04041,4.92506-.41548,7.36786-.04045,.26343-.06929,.53288,.27043,.64967,.32187,.11064,.40456-.13888,.53979-.33199,1.02469-1.46343,1.60854-3.14828,2.36314-4.74455,2.31306-4.89297,4.61003-9.79406,6.7328-14.77406,1.50322-3.52654,2.64961-7.18081,3.88136-10.805,1.97943-5.82411,4.2505-11.54468,6.18422-17.38539,1.84224-5.56439,3.48218-11.18647,4.65049-16.93233,.53249-2.61895,1.04257-5.25488,1.17929-7.93283,.13324-2.60974,1.52832-4.21567,3.8848-5.06302,3.15236-1.13351,6.31484-1.27346,9.36783,.30392,1.75809,.90835,2.64267,2.33573,2.57634,4.44398-.16525,5.2524-1.17391,10.35539-2.50881,15.40429-1.71072,6.47047-3.59542,12.88951-6.01326,19.13992-.47475,1.22727-.9197,2.4663-1.36371,3.70516-.37415,1.04396-.09709,1.41796,1.01313,1.35803,1.05266-.05682,2.10037-.06994,3.13343,.17755,1.98126,.47464,3.33638,1.72973,4.25266,3.48941,1.71786,3.29901,3.18125,6.71905,4.76024,10.08416,.50405,1.07429,.50797,1.05196,1.41332,.35843,.94124-.721,1.63523-1.67757,2.44165-2.52364,6.21-6.51527,13.74406-10.85707,22.24436-13.6193,1.85442-.60262,3.68251-1.35504,5.64739-1.51617,2.84273-.23313,5.45612,.31745,7.42235,2.59522,.77013,.89213,.95153,1.9727,.80746,3.1425-.33358,2.70844-1.15433,5.29929-1.91419,7.89885-.47943,1.64019-.67536,3.27487-.66891,4.97511,.01311,3.44891-.05079,6.89836-.11326,10.34706-.01111,.61272-.1886,1.22083-.24968,1.83499-.02561,.25748-.18475,.60627,.13101,.76834,.30353,.15578,.52149-.10296,.73241-.30494,1.05726-1.01238,1.85354-2.23688,2.73163-3.39091,3.19496-4.19904,6.36555-8.41674,9.53014-12.63878,2.25163-3.00396,4.61614-5.91874,6.99001-8.82451,1.73642-2.12548,3.56941-4.17218,5.36228-6.25147,2.08763-2.42108,4.17988-4.8382,6.26737-7.25941,1.18345-1.37265,2.7236-2.16174,4.46381-2.44252,3.14719-.50781,6.12893-.03613,8.80778,1.83547,1.63123,1.13967,2.31585,3.08043,1.57272,4.92721-1.4573,3.62156-2.95034,7.22925-4.47172,10.82441-2.14593,5.07099-4.49079,10.0567-6.5236,15.17645-.06726,.16938-.11656,.34591-.21593,.64436Zm-85.74692,5.151c.02538-1.24854-.14772-2.47837-.35896-3.69395-.57251-3.29432-1.90725-6.33211-3.26277-9.35818-.23312-.52041-.78201-.56431-1.08891-.07202-.20896,.33517-.37211,.7061-.50758,1.07855-.63388,1.74273-1.2421,3.49478-1.87593,5.23753-1.48403,4.08036-2.75654,8.25245-4.78351,12.10794-1.05826,2.01291-1.89839,4.17455-3.4802,5.88816-.19586,.21218-.28455,.4918-.03944,.7555,.62332,.67063,2.50496,1.70302,3.78081,1.33028,1.65102-.48236,3.28198-.99442,4.82253-1.75865,1.86593-.92565,3.57268-2.05546,4.77003-3.82594,1.57662-2.33134,1.87368-4.98968,2.02394-7.68923Zm19.96857,11.88458c-.07949,.59232,.07645,1.40379,.48635,2.18965,.24762,.47477,.39756,.53235,.79677,.13043,1.65065-1.66182,3.34896-3.2735,4.81947-5.10884,1.53996-1.922,2.97727-3.91033,4.14201-6.08191,2.20062-4.10295,3.10239-8.62383,4.16443-13.09114,.12162-.51159-.25029-.56026-.58574-.48674-.21337,.04676-.39028,.25755-.58479,.393-.85062,.59228-1.50855,1.39404-2.26453,2.08914-2.39204,2.19938-4.73655,4.44364-6.64292,7.1007-2.70202,3.766-4.2586,7.91914-4.33105,12.86572Zm-81.03945,.5052c.03248,.44443-.02142,.8625,.12115,1.28783,.46547,1.38863,.60888,1.4202,1.66819,.42318,1.72037-1.61917,3.10587-3.48688,4.33858-5.49587,3.04165-4.95709,5.52729-10.15287,6.90528-15.82697,.29925-1.23218,.55183-2.48829,.24588-3.79126-.13661-.58178-.3027-.41616-.57325-.16117-.48691,.45891-1.03975,.86989-1.43862,1.39659-2.43194,3.21136-4.88682,6.40823-7.21492,9.69428-1.43666,2.02783-2.55846,4.24896-3.1468,6.70437-.45722,1.90819-.87527,3.81791-.90549,5.76902ZM45.52264,127.30892c-.02253-.2334-.0378-.45933-.09664-.69692-.73331-2.96107-1.67409-5.86218-2.52616-8.78846-.42595-1.46284-.88045-2.92138-1.52025-4.31229-.11575-.25164-.12671-.57827-.54632-.50298-.39354,.07061-.216,.37109-.2304,.57089-.1982,2.75014-.35952,5.50317-.58366,8.25111-.11167,1.36907-.29293,2.73574-.51489,4.09169-.26279,1.60534-.52806,3.20112-1.00148,4.7793-.59067,1.9691-1.12392,3.95702-1.78539,5.90629-.08052,.23726-.29018,.58427-.00294,.67464,.28585,.08995,.66624,.30612,1.00327-.12276,1.97738-2.51623,4.28607-4.74455,6.32098-7.21097,.64587-.78282,1.58418-1.42674,1.48386-2.63953Zm274.10552,21.83447c.08756-.40774-.16264-.86348-.11582-1.34314,.01223-.12542-.01835-.24094-.13024-.31237-.18352-.11716-.26163,.06385-.33749,.1539-.55008,.6532-1.13401,1.28458-1.62156,1.98265-2.789,3.99324-4.83455,8.35337-6.27617,12.99588-.61525,1.98133-1.18203,3.98287-.87604,6.1059,.03775,.26205,.05357,.58004,.27625,.66826,.18412,.07294,.40811-.16648,.60203-.301,1.12171-.77806,1.86319-1.88905,2.59542-2.9958,1.89321-2.86139,3.22259-5.99754,4.31112-9.2313,.83396-2.47759,1.47702-5.01045,1.57249-7.72298Z"/><path class="c" d="M70.17204,77.99342c.23619-1.55138,.45454-3.06288,.69875-4.57018,.30568-1.88666,.62706-3.77083,.95175-5.65433,.39639-2.29938,.78877-4.59962,1.21037-6.89443,.31869-1.73461,.6626-3.46507,1.02719-5.19063,.6021-2.84966,1.21391-5.69748,1.85155-8.53937,.61611-2.74599,1.26034-5.4858,1.91073-8.22393,.42835-1.80333,.94672-3.58744,1.30987-5.40312,.16192-.80953,.55647-1.0604,1.28834-1.10476,2.13893-.12963,4.27308-.3266,6.4113-.47288,2.96145-.2026,5.92196-.27396,8.88735-.26232,2.05824,.00808,4.11651,.01549,6.17476,.01622,.37041,.00013,.53123-.03214,.36375,.49572-1.73947,5.48243-3.46862,10.96856-4.94568,16.53018-.83589,3.14738-1.77058,6.26948-2.55689,9.42881-.92891,3.73223-1.75472,7.4903-2.60647,11.24142-.31716,1.3968-.5913,2.80371-.86381,4.21012-.0839,.433-.23181,.69477-.73292,.74954-1.76852,.19327-3.54005,.38185-5.29588,.66303-2.46241,.39433-4.9172,.84224-7.36523,1.31875-2.42074,.4712-4.82488,1.02395-7.20971,1.65692-.15209,.04037-.32422,.00525-.50913,.00525Z"/><path class="c" d="M127.41905,35.07642c2.11358,.55257,4.23629,1.07271,6.33888,1.66435,4.62217,1.30063,9.18589,2.77736,13.64787,4.56433,.52915,.21191,.52908,.35365,.33534,.79258-1.31377,2.97639-2.65052,5.94393-3.89224,8.95049-1.30304,3.15505-2.54985,6.33494-3.74532,9.53234-1.41516,3.78494-2.73024,7.60668-3.92162,11.46933-.47629,1.54423-.95386,3.08813-1.41765,4.63612-.12387,.41349-.16322,.6536-.78875,.51192-3.07523-.69656-6.1597-1.37483-9.2687-1.89295-2.6873-.44785-5.39413-.80608-8.11203-1.06525-.60901-.05807-1.23407-.04501-1.84286-.1937-.36117-.08821-.46175-.20915-.3623-.57147,1.13162-4.12252,2.25419-8.2463,3.50709-12.33571,1.44565-4.71857,3.00484-9.39662,4.6462-14.04963,1.36499-3.86952,2.85723-7.6903,4.34836-11.5116,.07152-.18328,.04917-.64612,.52774-.50117Z"/><path class="c" d="M147.76673,120.67864c-.99529-.17452-1.99684-.31962-2.98454-.52982-1.94179-.41325-3.90336-.70096-5.86798-.96757-2.23241-.30297-4.46685-.59438-6.70518-.84898-1.27833-.14539-2.56554-.21674-3.85011-.30072-.34204-.02236-.4753-.02246-.40812-.48205,.26422-1.80798,.41025-3.63299,.66196-5.44309,.26038-1.87242,.55127-3.74199,.82441-5.61204,.3143-2.15179,.66702-4.29693,1.05626-6.43349,.58223-3.1959,1.24849-6.37613,1.96862-9.54614,.83647-3.68225,1.75423-7.3412,2.74408-10.98431,.1468-.54033,.29008-.6383,.834-.4899,3.95134,1.07811,7.86816,2.2684,11.73233,3.62244,2.37452,.83206,4.74191,1.68985,7.06228,2.6705,.34109,.14413,.41129,.25506,.29991,.61453-1.22783,3.9626-2.24159,7.98455-3.20255,12.01721-.70847,2.97305-1.35763,5.96559-1.87992,8.97603-.48407,2.79002-.98979,5.57881-1.34894,8.39254-.21567,1.68962-.47616,3.37608-.69306,5.06718-.02218,.17293-.02406,.33277-.24342,.27768Z"/><path class="c" d="M179.89101,84.23492c-1.43596-.31204-2.80106-.21755-4.14925-.1595-2.51572,.10829-4.81308,.81777-6.6405,2.70244-.73192,.75485-1.13538,1.63983-1.34627,2.62479-.06607,.30855-.1038,.37984-.37747,.24064-3.3459-1.70181-6.76451-3.24692-10.21889-4.71307-.36807-.15622-.36937-.34122-.25931-.66427,.91156-2.67615,1.78464-5.36564,2.71822-8.03402,1.58722-4.53666,3.39882-8.98814,5.32621-13.38801,1.43881-3.28455,3.03761-6.49894,4.55514-9.74925,.18075-.38711,.3449-.44815,.72937-.20473,4.00079,2.53316,7.91953,5.18317,11.7106,8.02329,1.91444,1.43421,3.80628,2.89606,5.7017,4.35409,.50356,.38736,.38942,.6595,.2024,1.05148-.80545,1.68801-1.63379,3.36533-2.42208,5.06127-1.83475,3.94748-3.50354,7.9647-5.0333,12.04042-.10925,.29109-.06645,.77032-.49658,.81442Z"/><path class="c" d="M222.31184,119.61027c-.16396-.08477-.28789-.1498-.41266-.21321-5.12056-2.60215-10.20502-5.27141-15.19851-8.11203-2.06526-1.17487-4.14039-2.33361-6.23521-3.45452-.53541-.2865-.65636-.51149-.47393-1.13503,1.84711-6.31347,4.10561-12.47659,6.68124-18.52542,.70703-1.66043,1.49653-3.2857,2.20735-4.9446,.17895-.41764,.35032-.2819,.56258-.11209,1.25841,1.00673,2.51048,2.02136,3.76559,3.03224,2.37603,1.91372,4.80925,3.75272,7.25257,5.57942,2.97664,2.22544,5.99314,4.39431,9.07026,6.4782,.30799,.20858,.3174,.3896,.18185,.70446-1.14503,2.65994-2.23874,5.34102-3.2337,8.06121-1.45396,3.97511-2.73025,8.00766-3.88164,12.0799-.06343,.22431-.08442,.448-.2858,.56147Z"/><path class="c" d="M198.12782,108.0207c-.26522,1.09012-.48479,2.10003-.75795,3.09524-.8579,3.12564-1.53662,6.29156-2.1321,9.47496-.50746,2.71292-.99882,5.42983-1.43013,8.15561-.26309,1.6625-.39745,3.34529-.59344,5.01852-.04658,.39769-.10271,.62986-.65984,.43048-3.67384-1.31475-7.42485-2.43578-11.0264-3.92116-1.6922-.6979-3.48772-.9626-5.15037-1.68795-.37079-.16177-.47654-.23666-.32863-.62264,1.3746-3.58665,2.68569-7.1956,3.84449-10.85941,1.43259-4.52945,2.64186-9.12079,3.84004-13.71509,.25186-.9657,.41698-1.95591,.58261-2.94144,.09257-.55076,.36028-.26643,.5698-.15048,1.67921,.92928,3.3568,1.86162,5.02669,2.80748,2.60875,1.47764,5.21287,2.96347,7.8124,4.45722,.19222,.11046,.57991,.14048,.40282,.45867Z"/><path class="c" d="M47.32057,80.56821c-1.20475-3.39419-2.60437-6.66934-4.09273-9.9095-1.27817-2.78257-2.55939-5.56295-3.87968-8.3262-1.27176-2.66169-2.53831-5.32509-3.85054-7.96748-1.24955-2.51617-2.43581-5.06376-3.65014-7.59742-.02029-.04233-.04499-.08255-.06548-.12479-.18465-.38075-.70751-.76439-.5298-1.10297,.16417-.31278,.73687-.42955,1.1455-.59304,5.99361-2.398,12.02744-4.68479,18.21847-6.53256,.67464-.20135,1.37445-.3347,2.026-.59211,.55034-.21743,.52824,.09409,.47488,.41774-.19966,1.21086-.44181,2.41473-.6398,3.62584-.32373,1.98031-.6271,3.96396-.93571,5.94672-.20024,1.2865-.39512,2.57384-.59136,3.86096-.23534,1.54352-.47836,3.08593-.70224,4.63112-.33934,2.34215-.68493,4.6837-.99,7.03042-.2296,1.76618-.39459,3.54068-.59788,5.31039-.21955,1.91123-.45954,3.82015-.67246,5.73209-.12906,1.15892-.17898,2.32823-.34823,3.48058-.13057,.88895-.01941,1.80474-.31882,2.71021Z"/><path class="c" d="M86.81512,119.78994c.07286-2.68426,.24638-5.18682,.43174-7.689,.11643-1.57191,.18855-3.14752,.33002-4.71702,.1517-1.68294,.36803-3.35994,.54343-5.04086,.11595-1.11136,.18587-2.22787,.31847-3.33705,.20541-1.71814,.48285-3.42823,.66205-5.14878,.15965-1.53293,.40699-3.05142,.63099-4.57388,.34034-2.31318,.71451-4.62045,1.11747-6.92451,.37771-2.15961,.73416-4.32193,1.16786-6.47171,.06847-.33933,.18203-.42384,.49867-.44035,1.71972-.08964,3.43898-.19058,5.15721-.30556,3.63858-.24347,7.28092-.09535,10.92156-.11825,1.24416-.00783,2.47928,.22764,3.72752,.14593,.27072-.01772,.45749,.0316,.36624,.41036-.47259,1.96173-.94585,3.92415-1.35616,5.89933-.08369,.40288-.23323,.43165-.54493,.42082-2.01516-.07011-3.83264,.56697-5.41402,1.75168-.93573,.70101-1.77849,1.55384-2.31423,2.65025-1.26567,2.5903-2.57961,5.1573-3.82338,7.75793-1.48131,3.09731-2.89684,6.226-4.36564,9.32939-.93449,1.97445-1.91728,3.926-2.87265,5.89062-1.63558,3.3634-3.26628,6.72917-4.9014,10.0928-.04788,.09849-.12236,.18406-.28081,.41785Z"/><path class="c" d="M95.9654,207.65591c1.57274-1.98362,2.87943-4.03578,3.97904-6.21863,.89343-1.77351,1.70134-3.58306,2.1878-5.51987,.07162-.28515,.21794-.45638,.59-.44617,1.31864,.03628,2.63885,.01009,3.9581,.03105,.55157,.00875,1.0522,.23207,1.49345,.54827,.57753,.41385,.80157,.9587,.5055,1.65633-.89914,2.11859-2.03592,4.11005-3.18124,6.10258-1.98657,3.45611-4.56631,6.41487-7.43458,9.14833-.25587,.24384-.49561,.38753-.86861,.3632-.7391-.04821-1.48751,.00954-2.22158-.07146-1.55454-.17152-2.56461-1.24165-3.51933-2.32299-2.0471-2.31862-3.79103-4.84741-5.09483-7.66428-.10624-.22954-.21975-.45573-.36625-.75866-.61015,1.15454-1.15659,2.27181-1.77709,3.34631-1.5773,2.73133-3.59787,5.10986-5.89267,7.2637-.14907,.13988-.30013,.18126-.49994,.20591-2.64341,.326-4.71776-.62463-6.40348-2.66351-1.53569-1.85737-3.12023-3.66993-4.40716-5.71835-1.80297-2.86975-3.26592-5.88881-4.14044-9.17718-.06881-.25874-.12225-.41646,.22313-.40217,1.80286,.07452,3.62519-.21243,5.4053,.28252,1.19498,.33228,2.09804,.96919,2.47023,2.23697,.99603,3.39279,2.79048,6.36699,4.89006,9.17416,.48763,.65195,.48988,.63327,.99691-.03481,2.413-3.17943,4.24968-6.67848,5.74724-10.36347,.17-.41834,.34701-.61797,.85483-.5978,1.49218,.05923,2.97819-.01611,4.45816,.37276,1.67997,.44142,2.35456,1.67194,2.94574,3.12164,1.20667,2.95897,3.00892,5.55933,5.10172,8.10561Z"/><path class="c" d="M58.84703,113.77704c-.68669-2.27735-1.22676-4.52259-2.01912-6.69007-1.62768-4.4525-3.25504-8.90513-4.87824-13.35926-.79935-2.19346-1.59368-4.3888-2.3776-6.58779-.10012-.28085-.0551-.47139,.31753-.62885,2.69822-1.14011,5.41956-2.21727,8.16792-3.23153,3.29501-1.21598,6.63853-2.27606,10.00013-3.28841,.68121-.20515,.6768,.09962,.61166,.55485-.4205,2.93869-.72573,5.88969-1.02055,8.84333-.1984,1.98764-.40421,3.97333-.57344,5.96439-.29068,3.42008-.61032,6.83633-.72158,10.26917-.02162,.66714-.18301,1.33333-.11865,2.0037,.04539,.47279-.37592,.50678-.60149,.69049-2.23272,1.81846-4.48447,3.61356-6.78655,5.45997Z"/><path class="c" d="M311.59238,130.70336c-1.15869-.21709-2.32195-.41272-3.47522-.65544-3.03446-.63858-6.0769-1.24596-9.09287-1.96361-2.82535-.67226-5.62779-1.44473-8.42704-2.2209-2.00465-.55583-3.98133-1.21233-5.98444-1.77419-.48155-.13507-.53106-.27339-.37619-.71993,1.27834-3.68585,2.75431-7.29501,4.19999-10.91602,.15368-.38492,.25567-.64422,.85709-.47004,2.70181,.78246,5.42469,1.49607,8.15381,2.17925,3.02929,.75832,6.08003,1.42641,9.14536,2.02713,2.98813,.58561,5.98105,1.14322,8.99586,1.57293,.40916,.05832,.30539,.2325,.22296,.48067-.50969,1.53458-.9927,3.07822-1.51751,4.60757-.8444,2.46094-1.53966,4.96706-2.274,7.46094-.08331,.28288-.11516,.43637-.42779,.39164Z"/><path class="c" d="M260.17732,101.02551c-.03984,.07073-.10092,.16828-.15171,.27091-1.67163,3.37715-3.24946,6.79735-4.67029,10.28778-.16642,.40881-.28778,.48162-.70195,.2713-5.14076-2.61048-10.17511-5.41375-15.10455-8.40014-2.5093-1.5202-4.93036-3.18543-7.41938-4.7402-.44252-.27642-.43435-.53952-.26297-.891,1.02402-2.1003,2.05026-4.19969,3.09803-6.28821,.54994-1.09618,1.16751-2.15864,1.70965-3.25844,.23421-.47515,.47637-.53028,.88748-.24441,1.87602,1.30453,3.83457,2.4802,5.79047,3.65794,3.74202,2.25326,7.54062,4.40512,11.42066,6.41606,1.65852,.85958,3.32899,1.69357,4.99335,2.54059,.14677,.07468,.38716,.07935,.41122,.37781Z"/><path class="c" d="M240.9615,213.4661c-4.50074,.03514-8.35296-.59469-11.8691-2.61122-1.89235-1.08524-3.43153-2.51576-4.03249-4.72809-.67012-2.46693,.03897-4.60041,1.66362-6.44569,1.96732-2.23454,4.61982-3.23896,7.43383-3.89548,2.74682-.64083,5.54202-.85505,8.3448-.69774,3.22574,.18105,6.38934,.73768,9.29072,2.28109,2.00235,1.06517,3.75605,2.43145,4.45619,4.6854,.87838,2.82769,.01295,5.26273-2.06049,7.27644-2.09069,2.03043-4.7243,2.96704-7.51395,3.55069-2.05081,.42907-4.12004,.64851-5.71312,.5846Zm-.48531-3.14947c1.30713-.01671,2.28824,.05313,3.25089-.15682,.54785-.11948,1.09166-.26433,1.62813-.42779,2.71014-.82565,4.37752-2.75238,4.16294-5.76043-.11022-1.54515-.72642-2.87581-2.01559-3.85756-1.2713-.96819-2.71708-1.37366-4.26338-1.6359-2.44336-.41436-4.82828-.2993-7.18722,.45249-2.41696,.77027-4.6714,2.82233-4.11492,6.13577,.36091,2.14904,1.45573,3.58835,3.45237,4.38729,1.74171,.69695,3.55628,.9264,5.08678,.86294Z"/><path class="c" d="M44.8059,213.46248c-4.15458,.0502-7.83014-.52796-11.22061-2.32185-2.03731-1.07791-3.79274-2.50112-4.49127-4.83313-.69273-2.31263-.15996-4.41933,1.31748-6.27406,1.96673-2.46897,4.7378-3.54523,7.68978-4.24142,2.76453-.65197,5.58539-.8754,8.41034-.70479,3.70967,.22402,7.326,.91129,10.49821,3.0195,1.5866,1.05444,2.84034,2.4048,3.32117,4.3356,.62305,2.50182-.09111,4.65755-1.76773,6.50216-1.92958,2.12295-4.48658,3.13803-7.20619,3.78556-2.26813,.54006-4.57205,.80541-6.55118,.73243Zm.15436-3.15733c1.24265,.09441,2.63441-.04612,3.98519-.43749,2.75139-.79714,4.90668-2.55942,4.49969-6.21088-.21164-1.89884-1.17196-3.30402-2.81953-4.09485-3.50771-1.68376-7.14452-1.76139-10.82303-.51355-2.3638,.80185-4.18488,2.73381-3.94809,5.5519,.16964,2.01901,1.03575,3.59488,2.84915,4.54418,1.90218,.99579,3.97464,1.22171,6.25663,1.16069Z"/><path class="c" d="M279.08325,205.07484c.00174,.03323-.00274,.07501,.00501,.0774,2.85482,.88524,4.3195,3.32583,6.08952,5.42759,.67515,.80171,1.42638,1.52749,2.3104,2.11988-.49815,.46866-1.16785,.53395-1.76162,.57592-1.58715,.11215-3.17696,.08093-4.72965-.39911-1.14967-.35545-1.8163-1.23726-2.50721-2.11404-.95269-1.20892-1.79445-2.51672-3.01416-3.4919-.94432-.75502-2.11392-.89309-3.24518-.97922-1.01889-.07759-2.0367-.23922-3.0691-.19598-.41485,.01738-.51133,.13642-.50769,.5307,.01844,1.99051-.00891,3.9815,.02093,5.97171,.00729,.48579-.14271,.59578-.59913,.57933-1.48922-.05366-2.98912,.11588-4.44105-.42461-1.27353-.47412-1.84238-1.18151-1.84352-2.51073-.00392-4.5809,.0055-9.16186-.01195-13.74269-.00181-.47795,.14554-.66717,.61701-.72055,4.20032-.47532,8.41579-.68852,12.63742-.54479,2.70898,.09226,5.41441,.37573,7.86856,1.7039,1.21542,.65777,2.21895,1.49637,2.51811,2.96444,.20971,1.02912-.17925,1.85247-.80739,2.56555-1.39969,1.589-3.26185,2.25463-5.30957,2.50012-.08236,.00989-.19785-.01768-.21973,.10709Zm-7.00686-1.81847c.78983,0,1.57994,.01274,2.36945-.00306,1.11681-.02235,2.17189-.29005,3.1415-.85883,1.21163-.71071,1.24295-2.42144,.08568-3.22452-.95759-.66446-2.06248-.76836-3.14849-.79371-1.80791-.04224-3.62135-.10577-5.42915,.10834-.348,.0412-.4316,.12756-.42686,.45687,.01724,1.19611,.04046,2.39401-.00728,3.58847-.02424,.60674,.26906,.72817,.7584,.72673,.88558-.00258,1.77116-.00074,2.65674-.0003Z"/><path class="c" d="M157.65463,205.17468c.37324,.14712,.75282,.28013,1.1186,.44388,1.42872,.6396,2.43853,1.77109,3.39348,2.95182,1.15008,1.42203,2.2092,2.92471,3.72378,4.00751,.05181,.03707,.07735,.11087,.14725,.2157-1.50493,.69045-3.06183,.56561-4.61078,.44806-.51215-.03885-1.02069-.16019-1.524-.2742-1.34829-.30546-2.13185-1.32253-2.91368-2.34018-.60406-.78628-1.21449-1.56771-1.82551-2.34859-1.14521-1.46359-2.75682-1.92846-4.50287-2.00282-.90433-.0385-1.79526-.21032-2.70749-.18382-.50648,.01472-.69413,.0869-.6819,.6554,.04176,1.94152,.00359,3.88464,.02542,5.82683,.00496,.44151-.07068,.62597-.57249,.60601-1.3757-.0547-2.76383,.09882-4.11477-.3004-1.23011-.36353-2.2373-.97277-2.21356-2.82535,.05746-4.48363,.03107-8.96858,.00451-13.4528-.00373-.63141,.21994-.76395,.80403-.83381,4.12874-.49368,8.27318-.65452,12.42258-.53551,2.63797,.07562,5.26278,.39284,7.68106,1.57902,.87365,.42853,1.69126,.98948,2.22535,1.82796,1.1096,1.74201,.44336,3.50368-1.28093,4.73638-1.36121,.97316-2.9153,1.45487-4.59809,1.79892Zm-6.94234-1.91819c.74341,0,1.48698,.00947,2.23022-.0022,1.14196-.0179,2.21851-.27522,3.22104-.84967,1.19124-.6826,1.29093-2.3229,.20391-3.17028-.9549-.74439-2.09656-.81854-3.20045-.85391-1.81057-.058-3.62876-.11083-5.4403,.10456-.34158,.04061-.43862,.11461-.4332,.45216,.01882,1.17443,.04888,2.35142-.00872,3.52334-.03329,.67738,.27144,.81207,.83758,.80039,.86298-.01782,1.72657-.00466,2.5899-.00439Z"/><path class="c" d="M195.48686,55.14952c1.94376,1.57047,3.88844,3.12741,5.81717,4.70383,2.11475,1.72848,4.22073,3.46784,6.31941,5.21579,1.66297,1.38506,3.30922,2.79015,4.96235,4.187,.0548,.04632,.09777,.10808,.15604,.14855,.44283,.30749,1.10283,.61387,1.1383,1.06741,.03499,.44736-.47901,.93101-.73348,1.40868-1.47695,2.77249-3.06524,5.48735-4.3755,8.34599-.27668,.60358-.55379,.53045-.97402,.17927-3.14862-2.6313-6.31776-5.2382-9.45289-7.88541-2.70575-2.28467-5.42954-4.54651-8.20415-6.74691-.30383-.24096-.35642-.4439-.16212-.81882,1.71694-3.31323,3.55025-6.56019,5.50889-9.8054Z"/><path class="c" d="M245.16716,131.04051c-1.72111,2.09637-3.40188,4.14649-5.06226,6.21438-1.78934,2.22849-3.4815,4.53051-5.26593,6.76177-.80139,1.0021-1.57396,2.03058-2.29961,3.08823-.28752,.4191-.57678,.539-1.02742,.39888-1.67622-.52123-3.35307-1.04044-5.02913-1.56221-.29843-.0929-.38751-.27666-.42129-.61107-.19266-1.90766,.4972-3.65094,.98086-5.42525,.58527-2.14709,1.32903-4.26947,1.57688-6.47733,.14655-1.30542,.39981-2.73835-.30077-3.98577-1.02221-1.82015-2.61112-2.97305-4.63328-3.49327-1.15647-.29751-1.16837-.27242-.89527-1.38147,.22469-.91236,.49823-1.81439,.68053-2.73477,.08464-.42737,.27103-.3866,.53732-.25789,1.9833,.95855,3.94808,1.95695,5.94813,2.87897,3.42132,1.57723,6.84721,3.14575,10.34387,4.55379,1.62383,.65389,3.23136,1.3482,4.86737,2.03303Z"/><path class="c" d="M126.00999,195.35786c3.57563,0,6.50302,.01323,9.43006-.01262,.50344-.00445,.63915,.11878,.6307,.62655-.02519,1.51298-.65032,2.16416-2.26409,2.38108-.9523,.12802-1.90194,.13218-2.85544,.13269-3.45514,.00183-6.91028,.00487-10.36541-.00418-.46897-.00123-.72113,.0191-.84673,.6393-.19918,.9834-.15738,1.98336-.36799,2.95625-.11878,.54864,.27071,.4789,.60467,.47878,3.93502-.00153,7.87015,.01327,11.80495-.01645,.58568-.00443,.65475,.18337,.69774,.71157,.13697,1.68292-.89195,2.01052-2.04213,2.12958-3.46205,.35838-6.93878,.08984-10.40878,.14448-.51867,.00817-.70432,.09732-.67297,.6567,.0616,1.09921,.10292,2.17255,1.05156,2.95653,.70707,.58439,1.5581,.79355,2.41676,.88274,3.19964,.33229,6.41188,.13257,9.61859,.13148,1.08759-.00035,2.17617-.159,3.26214-.26702,.42323-.0421,.5041,.1228,.50282,.51805-.00511,1.57822-.86519,2.38633-2.6686,2.63051-3.43087,.46455-6.87803,.32179-10.31222,.23525-2.55506-.06441-5.10369-.44367-7.43393-1.67805-2.18123-1.15545-3.32309-2.91984-3.31453-5.40517,.0042-1.22333-.0359-2.44804,.01011-3.66966,.05598-1.48597,.24233-2.96205,.63657-4.40091,.48145-1.75721,1.56116-2.40341,3.48195-2.60806,3.34348-.35622,6.70223-.0386,9.4042-.14942Z"/><path class="c" d="M8.92341,206.29717c0,2.12901-.01659,4.16677,.01174,6.20392,.00702,.50512-.0697,.71809-.64601,.6804-1.37198-.08977-2.76117,.13264-4.11485-.29464-1.51559-.47839-2.12355-1.26497-2.12357-2.82976-.00006-4.43647,.01604-8.87307-.01858-13.30928-.0048-.61444,.25806-.76595,.74787-.81799,2.1206-.22536,4.23573-.47902,6.36785-.61945,2.22707-.14668,4.45327-.159,6.66916-.06426,2.57492,.11008,5.14627,.41512,7.48707,1.68156,1.5066,.81513,2.62102,1.96378,2.70991,3.71688,.07747,1.52788-.67973,2.80189-1.90469,3.71294-1.6942,1.26005-3.65668,1.84288-5.72143,2.20743-1.99619,.35246-3.99732,.28944-5.99635,.24739-1.14819-.02414-2.29956-.21731-3.46813-.51515Zm3.89717-7.94456c-1.10505,.01915-2.31973-.04816-3.52947,.13443-.27424,.0414-.36136,.1021-.35932,.37608,.01073,1.43719,.00552,2.87448,.00439,4.31174-.00016,.1964-.01595,.35408,.27843,.3765,1.70581,.12985,3.41017,.37156,5.12203,.25646,1.18758-.07984,2.37317-.24251,3.45477-.83678,.81139-.44578,1.21647-1.16972,1.18768-2.01217-.03514-1.02847-.60854-1.79041-1.62399-2.17565-1.44018-.54635-2.93901-.41203-4.53454-.43062Z"/><path class="c" d="M198.14554,203.67794c0-2.32554,.02584-4.65159-.01916-6.97627-.01055-.54374,.21665-.72455,.64724-.76338,1.41303-.12746,2.81981-.31692,4.22964-.46771,2.86183-.30613,5.7282-.33886,8.58909-.23082,2.75102,.10389,5.47794,.43139,7.96661,1.82772,3.20373,1.79755,3.24082,5.39635,.29125,7.47309-1.64727,1.15981-3.51633,1.66296-5.46691,2.02433-1.99353,.3693-3.99344,.27883-5.99068,.24579-1.00314-.01659-2.00852-.23349-3.00068-.42352-.44327-.0849-.51145,.02571-.50758,.43294,.01826,1.91782-.00492,3.83604,.01784,5.75373,.00531,.44803-.08065,.63408-.57894,.60432-1.36947-.08184-2.75341,.13728-4.10624-.28997-1.39116-.43933-2.1587-1.15058-2.0935-2.73797,.08849-2.1541,.02202-4.31455,.02202-6.47228Zm10.83857-5.32505c-1.21331,.01205-2.42687-.03388-3.63739,.13306-.33988,.04688-.4508,.14631-.44814,.47597,.01097,1.36422,.00624,2.72859,.0032,4.0929-.00058,.26342,.03737,.46456,.36979,.49189,2.32856,.19141,4.65802,.54266,6.98366-.00583,.96729-.22812,1.91374-.52699,2.44262-1.47594,.77718-1.39441,.00819-2.91865-1.68694-3.41793-1.32429-.39005-2.67929-.26937-4.0268-.29411Z"/><path class="c" d="M180.19883,213.45014c-2.86426,.04537-5.36277-.08416-7.78706-.8538-.65272-.20724-1.27616-.47238-1.84118-.86415-1.09681-.76041-1.13739-1.88958-1.07118-3.05793,.02023-.35716,.23808-.29884,.44433-.20485,1.58442,.72215,3.2363,1.21751,4.95848,1.46921,2.06981,.30253,4.1352,.51248,6.24085,.275,1.03612-.11681,2.07508-.16606,3.07601-.47497,.49414-.15249,.94803-.3772,1.28903-.80655,.6336-.79782,.48665-1.62516-.40763-2.11144-.98789-.53722-2.08821-.66032-3.16916-.84809-3.10369-.53917-6.29247-.58533-9.31529-1.589-1.04712-.34765-2.05942-.77324-2.88616-1.54604-1.33153-1.24459-1.15846-2.86109-.05081-4.1499,1.29964-1.51222,3.07149-2.21256,4.91451-2.75017,1.42624-.41603,2.89507-.59819,4.37609-.75472,1.46036-.15434,2.91804-.16666,4.36687-.09107,2.18154,.11382,4.37766,.24788,6.43645,1.12126,1.6903,.71709,2.17313,1.54237,2.01212,3.38882-.04107,.47098-.24722,.34992-.50934,.22534-1.30321-.61938-2.66233-1.05361-4.09648-1.24685-2.09724-.28266-4.18721-.47547-6.31677-.27461-1.29219,.12187-2.57301,.19545-3.8173,.60133-.34622,.11291-.66592,.28201-.91119,.50454-.78872,.71559-.84426,1.60006,.33318,2.13701,1.36165,.62094,2.83472,.78593,4.29365,1.00127,2.85728,.42178,5.77357,.53263,8.51133,1.5864,.87815,.338,1.69467,.77408,2.42498,1.39835,1.35286,1.15644,1.11545,3.26027,.25885,4.38239-1.02327,1.34047-2.44278,2.02552-3.97855,2.52446-1.52488,.49538-3.09914,.72599-4.69574,.89992-1.14828,.12512-2.28905,.04368-3.08286,.10887Z"/><path class="c" d="M327.74548,213.452c-2.56523,.05788-5.09323-.07589-7.52833-.87273-1.18512-.38782-2.36065-.85913-2.76714-2.25391-.15864-.54432-.04795-1.088-.08004-1.63096-.01979-.3347,.19361-.33553,.4215-.23235,1.58602,.71811,3.23433,1.21937,4.95987,1.4704,2.07128,.30128,4.13508,.51814,6.24092,.28072,1.03605-.11679,2.07515-.15882,3.07787-.46938,.43004-.1332,.82749-.3237,1.1551-.65241,.85178-.85466,.68735-1.89338-.42723-2.38394-.94855-.41751-1.97532-.5637-2.99094-.73812-2.94602-.50587-5.96505-.565-8.85065-1.43825-1.21518-.36771-2.39875-.80518-3.35395-1.69079-1.39041-1.28913-1.1377-2.88569-.06278-4.14466,1.29669-1.51867,3.06866-2.2257,4.91807-2.75879,1.42784-.41161,2.89618-.59608,4.37717-.75453,1.45997-.15618,2.91899-.17931,4.36465-.08812,2.38655,.15053,4.80717,.23479,7.00303,1.40093,1.23149,.65396,1.81155,1.93177,1.4406,3.23812-.10521,.37047-.3165,.1773-.48811,.09509-1.32316-.63375-2.71082-1.07493-4.16144-1.26272-2.07385-.26846-4.14612-.48087-6.25414-.25987-1.15036,.12062-2.30715,.13911-3.42731,.46838-.35851,.10537-.69617,.25122-1.02989,.42306-.54052,.27833-.86437,.75602-.8604,1.29658,.00397,.53604,.45559,.904,.96378,1.10469,1.04874,.41417,2.14848,.62621,3.25669,.81009,3.17134,.52617,6.43119,.56612,9.48808,1.723,.77002,.29141,1.50781,.64865,2.15762,1.15559,1.62715,1.26948,1.55059,3.21438,.48343,4.66617-1.09401,1.48836-2.70766,2.13986-4.38926,2.62937-2.49795,.72719-5.06486,.95053-7.63677,.86933Z"/><path class="c" d="M154.40837,31.82494c.07086,.03277,.19409,.10121,.32492,.14863,4.46951,1.61996,8.81237,3.53704,13.0758,5.63178,2.06225,1.01322,4.07144,2.13388,6.12249,3.17064,.47502,.24012,.49134,.47524,.25555,.88194-1.65949,2.86232-3.23704,5.7695-4.72283,8.72572-.17511,.34842-.3245,.34347-.64555,.1543-2.63103-1.55018-5.28721-3.05665-7.99547-4.46918-2.885-1.5047-5.83334-2.87656-8.81138-4.18558-.55746-.24504-1.10387-.53059-1.68295-.70689-.60372-.1838-.60172-.48118-.36023-.95808,.59149-1.1681,1.15347-2.35109,1.73786-3.52283,.74092-1.48557,1.48795-2.96815,2.24511-4.44548,.08551-.16685,.08742-.44598,.45668-.42497Z"/><path class="c" d="M104.11787,30.65525c.84989-2.47259,1.6743-4.87263,2.50041-7.2721,.08537-.24798,.24555-.33219,.52625-.33157,2.60881,.00578,5.20462,.24842,7.80605,.39054,1.8123,.099,3.61321,.30098,5.41536,.48973,2.07404,.21722,4.14615,.45893,6.20429,.80797,.95461,.16189,1.9202,.24937,2.86872,.46334,.33231,.07496,.31609,.17415,.21125,.42171-1.0557,2.49282-2.11333,4.98491-3.14637,7.48713-.16126,.3906-.33697,.44889-.74078,.36805-2.30928-.4623-4.62537-.88479-6.95091-1.26684-2.71629-.44624-5.44987-.73693-8.17515-1.09747-1.39112-.18404-2.80325-.20528-4.20417-.32079-.75525-.06228-1.5058-.18019-2.31496-.1397Z"/><path class="c" d="M303.38086,195.35786c3.57329,0,7.14659-.00703,10.71978,.01117,.34743,.00177,.88929-.24759,1.01608,.23249,.13941,.52798,.17474,1.14521-.30863,1.60086-.87614,.82592-1.9485,1.239-3.12304,1.26994-2.06102,.05431-4.1245,.04126-6.1864,.01462-.53869-.00694-.71698,.1011-.71322,.68746,.02837,4.43514,.00475,8.87061,.02893,13.30582,.00306,.55755-.12876,.73235-.69824,.6998-1.39624-.07982-2.81276,.1446-4.18352-.29854-1.09939-.3554-2.04025-.85182-2.01799-2.66672,.04506-3.66759-.00383-7.33627,.03019-11.00409,.00576-.62134-.17653-.73274-.75371-.7255-2.61361,.03279-5.2279,.02202-7.84181,.00531-.35561-.00227-.93984,.21315-1.02898-.15743-.13517-.56192-.23163-1.23434,.24507-1.76372,.27269-.30279,.61239-.49847,.9819-.66738,.87767-.40122,1.81899-.52255,2.75415-.53077,3.69288-.03251,7.38625-.01332,11.07944-.01332Z"/><path class="c" d="M54.8846,35.55543c.16463-.86473,.34326-1.78889,.51581-2.71417,.12082-.64791,.28755-1.29373,.33143-1.94735,.03176-.47311,.24214-.66616,.64793-.78266,3.04192-.87323,6.09019-1.72391,9.17342-2.43972,2.51787-.58455,5.03181-1.19913,7.57108-1.67443,2.17968-.40799,4.35601-.85837,6.56628-1.10373,.40203-.04463,.38236-.00297,.2907,.3361-.49567,1.83366-1.03438,3.66052-1.41059,5.51959-.18689,.92354-.84931,.8289-1.39446,.89413-2.76921,.33134-5.50966,.82681-8.25796,1.28995-4.56967,.77009-9.06921,1.83998-13.55966,2.9613-.4622,.11542-.46164,.11767-.47398-.33902Z"/><path class="c" d="M272.52934,120.9584c.98353,.09762,1.83134,.60963,2.74455,.91851,2.05666,.69562,4.07675,1.49971,6.13553,2.18846,.57043,.19083,.76593,.26959,.53302,.94411-.38795,1.12351-.82133,2.24125-1.06591,3.41462-.03042,.14599-.09373,.33029-.31415,.42341-.71441,.30179-1.21461,.88642-1.7494,1.42125-2.59541,2.59549-5.19603,5.1858-7.78288,7.78978-.31263,.3147-.55806,.46829-1.04118,.28291-.80231-.30785-1.64235-.53962-2.48521-.71213-.61087-.12502-.56604-.36238-.36134-.8248,1.83651-4.14857,3.58764-8.33338,5.22148-12.566,.41398-1.07245,.21936-2.19828,.1543-3.30629l.01118,.02615Z"/><path class="c" d="M288.23698,153.04372c.72608-2.97621,1.59163-5.75881,2.49732-8.52936,.08638-.26422,.18298-.40053,.59845-.31296,1.56725,.33032,3.15865,.54612,4.85617,.82362-2.84333,2.47961-5.33036,5.22188-7.95194,8.0187Z"/><path class="c" d="M253.70567,120.92143c.20753-1.18282,.72777-2.26627,1.0964-3.39737,.34462-1.05751,.84583-2.06544,1.16626-3.12888,.17836-.59196,.42303-.56527,.8531-.35991,1.32989,.635,2.66325,1.26273,4.0909,1.93856-1.00903,.26237-1.9507,.45705-2.79148,.91105-1.08753,.58724-1.94864,1.42923-2.76506,2.36417-.50774,.58145-.85421,1.37627-1.67093,1.66262l.02081,.00977Z"/><path class="c" d="M65.74064,128.98654c.098,1.78243,.28052,1.30639-1.53036,2.27953,.22537-.9885,.92293-1.55254,1.53036-2.27953Z"/><path class="c" d="M314.72654,132.19768l-1.57931,.80945q.03543-1.10263,1.57931-.80945Z"/><path class="c" d="M253.68486,120.91166c.11909,.05673,.07635,.13141,.0132,.195-.01826,.01839-.10076,.01016-.10276,.00186-.02251-.09369-.00174-.16941,.11039-.18709l-.02083-.00977Z"/><polygon class="c" points="272.51816 120.93224 272.55316 120.92692 272.53027 120.95919 272.51816 120.93224"/><path class="b" d="M174.39832,155.6443c-.15025,2.69955-.44732,5.35789-2.02394,7.68923-1.19736,1.77047-2.9041,2.90029-4.77003,3.82594-1.54055,.76423-3.17152,1.27628-4.82253,1.75865-1.27585,.37274-3.15749-.65965-3.78081-1.33028-.24511-.2637-.15642-.54331,.03944-.7555,1.5818-1.71361,2.42193-3.87526,3.4802-5.88816,2.02698-3.85549,3.29948-8.02758,4.78351-12.10794,.63383-1.74274,1.24205-3.4948,1.87593-5.23753,.13547-.37245,.29863-.74339,.50758-1.07855,.30691-.49229,.85579-.44839,1.08891,.07202,1.35552,3.02607,2.69026,6.06386,3.26277,9.35818,.21124,1.21558,.38434,2.44541,.35896,3.69395Z"/><path class="b" d="M194.36689,167.52888c.07245-4.94658,1.62903-9.09971,4.33105-12.86572,1.90637-2.65706,4.25089-4.90132,6.64292-7.1007,.75598-.6951,1.4139-1.49685,2.26453-2.08914,.19451-.13545,.37143-.34623,.58479-.393,.33545-.07352,.70736-.02485,.58574,.48674-1.06204,4.4673-1.96381,8.98818-4.16443,13.09114-1.16473,2.17159-2.60205,4.15991-4.14201,6.08191-1.47051,1.83534-3.16883,3.44703-4.81947,5.10884-.39921,.40192-.54915,.34435-.79677-.13043-.4099-.78586-.56585-1.59733-.48635-2.18965Z"/><path class="b" d="M113.32743,168.03409c.03021-1.95111,.44827-3.86083,.90549-5.76902,.58834-2.4554,1.71014-4.67654,3.1468-6.70437,2.32811-3.28605,4.78298-6.48292,7.21492-9.69428,.39886-.5267,.9517-.93768,1.43862-1.39659,.27056-.25499,.43665-.42062,.57325,.16117,.30595,1.30297,.05337,2.55908-.24588,3.79126-1.378,5.6741-3.86363,10.86989-6.90528,15.82697-1.23271,2.00899-2.61821,3.8767-4.33858,5.49587-1.05931,.99702-1.20272,.96544-1.66819-.42318-.14257-.42533-.08867-.8434-.12115-1.28783Z"/><path class="b" d="M45.5216,127.30902c.10135,1.2127-.83696,1.85662-1.48283,2.63944-2.03491,2.46642-4.3436,4.69474-6.32098,7.21097-.33703,.42888-.71742,.21271-1.00327,.12276-.28723-.09037-.07757-.43738,.00294-.67464,.66147-1.94927,1.19471-3.93719,1.78539-5.90629,.47342-1.57818,.73869-3.17397,1.00148-4.7793,.22196-1.35595,.40321-2.72262,.51489-4.09169,.22414-2.74794,.38546-5.50097,.58366-8.25111,.0144-.1998-.16314-.50028,.2304-.57089,.41961-.07529,.43057,.25135,.54632,.50298,.6398,1.39091,1.0943,2.84946,1.52025,4.31229,.85206,2.92628,1.79285,5.82739,2.52616,8.78846,.05884,.2376,.07411,.46353,.09561,.69702Z"/><path class="b" d="M319.62816,149.14339c-.09547,2.71253-.73853,5.24538-1.57249,7.72298-1.08853,3.23376-2.41791,6.36991-4.31112,9.2313-.73223,1.10675-1.47371,2.21775-2.59542,2.9958-.19393,.13452-.41791,.37393-.60203,.301-.22268-.08822-.2385-.40621-.27625-.66826-.30599-2.12302,.26079-4.12456,.87604-6.1059,1.44162-4.64251,3.48717-9.00264,6.27617-12.99588,.48755-.69807,1.07148-1.32945,1.62156-1.98265,.07586-.09005,.15396-.27106,.33749-.1539,.11189,.07142,.14247,.18695,.13024,.31237-.04682,.47966,.20338,.9354,.11582,1.34314Z"/><path class="b" d="M240.47618,210.31662c-1.5305,.06346-3.34508-.16599-5.08678-.86294-1.99664-.79895-3.09146-2.23825-3.45237-4.38729-.55648-3.31344,1.69796-5.3655,4.11492-6.13577,2.35894-.75179,4.74386-.86686,7.18722-.45249,1.5463,.26224,2.99209,.66771,4.26338,1.6359,1.28917,.98175,1.90537,2.31241,2.01559,3.85756,.21458,3.00805-1.4528,4.93477-4.16294,5.76043-.53648,.16346-1.08028,.30831-1.62813,.42779-.96265,.20995-1.94376,.14011-3.25089,.15682Z"/><path class="b" d="M44.96026,210.30515c-2.28199,.06102-4.35445-.1649-6.25663-1.16069-1.8134-.9493-2.67951-2.52518-2.84915-4.54418-.23679-2.81809,1.58429-4.75005,3.94809-5.5519,3.67851-1.24784,7.31532-1.17021,10.82303,.51355,1.64757,.79083,2.60789,2.19601,2.81953,4.09485,.40699,3.65146-1.7483,5.41374-4.49969,6.21088-1.35078,.39136-2.74254,.53189-3.98519,.43749Z"/><path class="b" d="M272.07638,203.25616c-.88558-.00023-1.77116-.00207-2.65674,.00051-.48934,.00144-.78264-.11999-.7584-.72673,.04774-1.19446,.02452-2.39236,.00728-3.58847-.00475-.32931,.07886-.41566,.42686-.45687,1.80781-.21411,3.62124-.15058,5.42915-.10834,1.08601,.02535,2.1909,.12925,3.14849,.79371,1.15727,.80308,1.12595,2.51381-.08568,3.22452-.96961,.56877-2.02469,.83648-3.1415,.85883-.78951,.0158-1.57962,.00306-2.36945,.00285Z"/><path class="b" d="M150.71229,203.25637c-.86333-.00014-1.72693-.0133-2.5899,.00452-.56615,.01168-.87087-.12301-.83758-.80039,.0576-1.17192,.02754-2.34891,.00872-3.52334-.00541-.33755,.09162-.41155,.4332-.45216,1.81153-.2154,3.62973-.16256,5.4403-.10456,1.10389,.03537,2.24555,.10952,3.20045,.85391,1.08702,.84737,.98733,2.48768-.20391,3.17028-1.00253,.57445-2.07909,.83177-3.22104,.84967-.74324,.01167-1.48681,.0022-2.23022,.00207Z"/><path class="b" d="M12.82058,198.35261c1.59552,.01859,3.09436-.11574,4.53454,.43062,1.01545,.38523,1.58884,1.14718,1.62399,2.17565,.02879,.84245-.37629,1.56639-1.18768,2.01217-1.08161,.59427-2.2672,.75694-3.45477,.83678-1.71186,.1151-3.41622-.12661-5.12203-.25646-.29438-.02242-.27859-.1801-.27843-.3765,.00114-1.43726,.00634-2.87455-.00439-4.31174-.00204-.27398,.08508-.33468,.35932-.37608,1.20974-.18259,2.42442-.11528,3.52947-.13443Z"/><path class="b" d="M208.98427,198.35182c1.34735,.02581,2.70235-.09486,4.02664,.29518,1.69513,.49928,2.46412,2.02352,1.68694,3.41793-.52888,.94895-1.47533,1.24782-2.44262,1.47594-2.32564,.5485-4.65511,.19725-6.98366,.00583-.33242-.02732-.37037-.22847-.36979-.49189,.00304-1.36431,.00777-2.72868-.0032-4.0929-.00265-.32966,.10827-.42909,.44814-.47597,1.21052-.16694,2.42408-.12101,3.63755-.13413Z"/></svg>